<?xml version="1.0" standalone="no"?>
<!DOCTYPE svg PUBLIC "-//W3C//DTD SVG 1.1//EN" "http://www.w3.org/Graphics/SVG/1.1/DTD/svg11.dtd" >
<svg xmlns="http://www.w3.org/2000/svg" xmlns:xlink="http://www.w3.org/1999/xlink" version="1.1">
<metadata>
Created by FontForge 20141231 at Tue Oct 20 14:09:04 2015

Created by uuOS with FontForge
</metadata>
<defs>
<font id="plus4u" horiz-adv-x="2048" >
  <font-face 
    font-family="plus4u"
    font-weight="400"
    font-stretch="normal"
    units-per-em="2048"
    panose-1="2 0 5 3 0 0 0 0 0 0"
    ascent="2048"
    descent="0"
    bbox="68 0 1974.03 1930"
    underline-thickness="0"
    underline-position="10"
    unicode-range="U+E000-E0A8"
  />
<missing-glyph 
d="M68 0v1365h544v-1365h-544zM136 68h408v1229h-408v-1229z" />
    <glyph glyph-name=".notdef" 
d="M68 0v1365h544v-1365h-544zM136 68h408v1229h-408v-1229z" />
    <glyph glyph-name=".null" horiz-adv-x="0" 
 />
    <glyph glyph-name="nonmarkingreturn" 
 />
    <glyph glyph-name="account" unicode="&#xe000;" 
d="M957 878q0 -36 19.5 -65.5t51.5 -44.5v-159q-97 17 -161 93t-64 176q0 61 28 118l129 -93q-3 -12 -3 -25zM1193 904l129 93q29 -58 29 -119q0 -100 -64.5 -176t-161.5 -93v159q32 15 52 44.5t20 65.5q0 11 -4 26zM1265 1076l-130 -94q-28 16 -58 16q-31 0 -59 -17
l-131 94q80 77 190 77q109 0 188 -76zM1575 1380q31 0 63 -31t32 -61v-895q0 -31 -32 -62t-63 -31h-210h-892q-31 0 -63 31.5t-32 61.5v158h117v233h-117v278h117v233h-117v375q0 30 32 61t63 31h720q31 0 63 -31t32 -61v-197q0 -26 24 -53t53 -36q10 -4 19 -4h191z
M1076.5 492q105.5 0 195 52t141.5 141.5t52 195t-52 195t-141.5 141.5t-195 52t-195 -52t-141.5 -141.5t-52 -195t52 -195t141.5 -141.5t195 -52z" />
    <glyph glyph-name="activity" unicode="&#xe001;" 
d="M319 1112q0 116 56 222.5t150 183t224.5 122t274 45.5t274.5 -45.5t225 -122t150 -182.5t56 -223t-56 -223t-150 -182.5t-225 -122t-274 -45.5q-54 0 -110 7q-55 -54 -117 -91t-129.5 -56t-127 -26.5t-133.5 -9.5v37q76 38 126 98.5t50 128.5q0 19 -3 40
q-122 80 -191.5 196t-69.5 249z" />
    <glyph glyph-name="anchor" unicode="&#xe002;" 
d="M939 1622q0 -34 24 -56t58 -22q31 0 54.5 22.5t23.5 55.5q0 30 -23.5 52t-54.5 22q-33 0 -57.5 -23t-24.5 -51zM1760 1031q0 -81 -15 -163.5t-55.5 -173t-102.5 -152.5q-60 -61 -141 -116.5t-152.5 -91.5t-134.5 -63.5t-101 -40.5l-37 -12q-14 4 -39 12.5t-97 39t-138 65
t-148.5 90.5t-143.5 117q-62 62 -102.5 152.5t-55.5 172.5t-15 164l107 -41q21 -186 150 -308t326 -160l62 661h-202v98h210l12 144q-65 21 -104.5 75t-39.5 122q0 86 63 145.5t155 59.5q90 0 154 -60t64 -145q0 -67 -41.5 -121.5t-106.5 -75.5l16 -144h205v-98h-197
l66 -661q193 38 322 161.5t150 306.5z" />
    <glyph glyph-name="artifact" unicode="&#xe003;" 
d="M1560 1356q31 0 62 -30t31 -60v-871q0 -30 -31 -60t-62 -30h-204h-868q-31 0 -62 30t-31 60v1243q0 30 31 60t62 30h700q31 0 62 -30t31 -60v-192q0 -24 23.5 -51t51.5 -35q10 -4 18 -4h186zM1371 672v43q0 9 -6 16q-1 0 -9 3q-1 0 -3 1.5t-4 1.5h-650q-10 0 -16 -6
t-6 -16v-43q0 -9 6.5 -15t15.5 -6h650q3 0 7 1q5 2 9 5q6 6 6 15zM1371 872v43q0 9 -6 15q-1 1 -9 4q-1 0 -3 1t-4 1h-650q-9 0 -15.5 -6t-6.5 -15v-43q0 -9 6.5 -15.5t15.5 -6.5h650q2 0 4 1.5t3 1.5q8 3 9 4q6 6 6 15zM1371 1072v43q0 9 -6 15q-1 1 -9 3q-1 1 -3 2t-4 1
h-650q-9 0 -15.5 -6t-6.5 -15v-44q0 -9 6 -15q7 -6 16 -6h650q2 0 4 1t3 2q8 2 9 3q6 6 6 16z" />
    <glyph glyph-name="bookmark" unicode="&#xe004;" 
d="M210 1199q0 36 54 45l492 71l220 445q19 40 48 40t48 -40l220 -445l491 -71q55 -9 55 -45q0 -22 -25 -47l-356 -347l85 -489q1 -6 1 -20q0 -20 -10.5 -34t-29.5 -14t-40 11l-439 231l-439 -231q-22 -11 -39 -11q-21 0 -31.5 14t-10.5 34q0 7 2 20l85 489l-357 347
q-24 26 -24 47z" />
    <glyph glyph-name="boy" unicode="&#xe005;" 
d="M1024 1734q148 0 283.5 -58t233 -156t155.5 -233t58 -283.5t-58 -283.5t-155.5 -233t-233 -156t-283.5 -58t-283.5 58t-233 156t-155.5 233t-58 283q0 177 79.5 331.5t216.5 255.5l-115 122l84 63l88 -146h0.5t1.5 1l-32 79l78 23l14 -70q149 72 315 72zM1024 423
q118 0 225 46t185 123.5t124 185t46 224.5q0 64 -14 124h-604l-160 156l2 -156h-370q-14 -60 -14 -124q0 -117 46 -224.5t124 -185t185 -123.5t225 -46zM806.5 1024q34.5 0 59 -24t24.5 -58.5t-24.5 -59t-59 -24.5t-59 24.5t-24.5 59t24.5 58.5t59 24zM1275 1024
q34 0 58.5 -24t24.5 -58.5t-24 -59t-58.5 -24.5t-59 24.5t-24.5 59t24.5 58.5t58.5 24zM1040.5 606q-72.5 0 -130 44.5t-76.5 112.5h413q-20 -68 -77 -112.5t-129.5 -44.5z" />
    <glyph glyph-name="business-case" unicode="&#xe006;" 
d="M1259 1132v0q-72 -25 -111.5 -67t-38.5 -99l-1 -440h-234h-485q-56 0 -95.5 38t-39.5 91v707q0 53 39.5 90.5t95.5 37.5h206h54h49v135q2 0 16 6.5t19.5 9t19.5 8.5t23.5 8.5t24.5 7.5t28 7.5t29.5 5t33.5 4t35 1.5q20 0 40 -2t35 -4t33.5 -7t29 -8t28 -10t23 -9.5
l22 -10t18.5 -7.5l-1 -135h22h48h34h206q55 0 94.5 -37.5t39.5 -90.5v-200q-52 6 -112 6q-41 -1 -75.5 -3.5t-60 -7.5t-40.5 -9t-32.5 -9.5t-19.5 -6.5zM1075 1490v86q-72 30 -148 30q-75 0 -148 -30v-86h296zM1782 608q3 5 6 6t4.5 -1t1.5 -5l-1 -82q0 -39 -39.5 -76.5
t-109.5 -61t-150 -23.5t-149.5 24t-109.5 61t-40 76v82q0 3 1.5 5.5t4.5 1.5t6 -7q28 -42 107 -69t180 -27t180.5 27t107.5 69zM1782 817q4 4 6.5 5t4 -1t1.5 -4v-97q0 -53 -88 -91.5t-211.5 -38t-211.5 38.5t-87 92v96q0 3 1 4.5t3.5 1t6.5 -5.5q27 -37 106.5 -61t181 -24
t181 23.5t106.5 61.5zM1495 1083q124 0 211.5 -31.5t87.5 -76.5v-51q0 -47 -88 -80.5t-211.5 -33.5t-211 33.5t-87.5 80.5v52q0 44 87.5 75.5t211.5 31.5z" />
    <glyph glyph-name="business-territory" unicode="&#xe007;" 
d="M1562 1495q86 -101 134 -226.5t48 -261.5q0 -8 -1.5 -23t-1.5 -21l-58 -42v156l-232 -153v153l-242 -162l-23 373q59 68 137 114q102 62 239 93zM989 1759q136 0 258.5 -44.5t222.5 -127.5q-117 -37 -204 -89q-136 -83 -217 -210h-226l-6 -106v-54q-148 82 -223 211
q-60 98 -93 238q101 86 226.5 134t261.5 48zM412 1485q31 -111 86 -204q111 -181 312 -274l-12 -280q-62 -72 -140 -118q-102 -62 -239 -92q-86 100 -134 226t-48 264q0 133 46 255.5t129 222.5zM791 568l-9 -223l-3 -61q-156 45 -268 143q115 32 204 90q32 18 76 51z
M1091 1179l16 -462l235 156v-153l233 153v-156l233 156v-532h-918l38 838h163z" />
    <glyph glyph-name="calendar" unicode="&#xe008;" 
d="M1559 1559q63 0 108 -45t45 -108v-917q0 -63 -45 -108t-108 -45h-1070q-63 0 -108 45t-45 108v917q0 63 45 108t108 45h69v-153h244v153h444v-153h244v153h69zM1559 489v611h-1070v-611h1070zM734 1712v-260h-107v260h107zM1421 1712v-260h-107v260h107z" />
    <glyph glyph-name="cancel" unicode="&#xe009;" 
d="M1449 396q-9 -9 -22.5 -9t-23.5 9l-356 357q-10 9 -23 9t-23 -9l-357 -357q-9 -9 -22.5 -9.5t-23.5 9.5l-202 203q-9 9 -9 22.5t9 23.5l357 356q9 10 9 23t-9 23l-357 357q-9 9 -9.5 22.5t9.5 23.5l203 202q9 10 22.5 10t23.5 -10l356 -356q10 -10 23 -10t23 10l357 356
q9 10 22.5 10t23.5 -9l202 -204q10 -9 10 -22.5t-10 -22.5l-357 -357q-9 -10 -9 -23t9 -23l357 -356q10 -10 10 -23.5t-9 -22.5z" />
    <glyph glyph-name="car" unicode="&#xe00a;" 
d="M1518 1523l149 -428v-571q0 -29 -21 -50t-51 -21h-71q-29 0 -50 21t-21 50v72h-857v-72q0 -29 -21 -50t-51 -21h-71q-30 0 -51 21t-21 50v571l149 428q11 32 39 52t62 20h786q34 0 62 -20t39 -52zM631.5 810q44.5 0 75.5 31t31 75.5t-31 76t-75.5 31.5t-76 -31.5
t-31.5 -76t31.5 -75.5t76 -31zM1416.5 810q44.5 0 76 31t31.5 75.5t-31.5 76t-76 31.5t-75.5 -31.5t-31 -76t31 -75.5t75.5 -31zM524 1167h1000l-107 321h-786z" />
    <glyph glyph-name="club" unicode="&#xe00b;" 
d="M1585 1362q87 0 146.5 -67t59.5 -168q0 -102 -60 -174.5t-146 -72.5q-84 0 -145.5 73t-61.5 174q0 100 61 167.5t146 67.5zM1803 868l4 -4h8q2 0 4 -2t4 -2q4 -4 8 -4l4 -4q2 -1 6 -5t6 -7l36 -47q16 -27 32 -58t24 -48l8 -18l15 -40q19 -38 8 -59q-7 -8 -11 -8l-4 -4
q-4 -4 -16 -4v-4h-12h-12h-4h-334q29 49 -4 131l-20 44q-16 32 -28 64q23 -8 52 -8h31q64 0 100 36q6 4 22.5 21.5t25.5 21.5l16 4h4q4 4 19 4h8zM1036 1576q106 0 182 -85.5t76 -212.5q0 -128 -76.5 -219t-181.5 -91q-108 0 -185.5 91t-77.5 219q0 127 77 212.5t186 85.5z
M482 1362q85 0 144 -67.5t59 -167.5q0 -102 -59.5 -174.5t-143.5 -72.5q-86 0 -146 72.5t-60 174.5q0 101 59.5 168t146.5 67zM284 868q11 0 19 -4q4 0 20 -8q7 -3 14.5 -9.5t18 -17.5t11.5 -12q45 -36 104 -36h31q9 0 24 2t20 2l-28 -56l-24 -48q-32 -82 0 -131h-338h-12
h-12l-4 4q-2 0 -6 2t-6 2l-3 4q-4 0 -8 3.5t-4 8.5q-8 12 -6 26.5t10 29.5l15 39q48 108 104 171l12 12l4 4q2 0 6 2t6 2l4 4h8q4 4 8 4h8h4zM1310 952l8 -4q4 0 8 -4h8q1 -2 3.5 -3t3.5 -2t1 -3q4 0 8 -4q1 -1 4.5 -3.5t6.5 -5.5t5 -7q22 -22 40 -52q0 -2 1.5 -4t1.5 -4
q22 -31 41.5 -70t29.5 -62l9 -23l24 -48q19 -56 4 -75q-4 -8 -12 -16h-4l-16 -8h-4q-4 -4 -16 -4h-4h-8h-823h-4h-16q-12 0 -20 4q-4 0 -20 8q-4 2 -10 8t-10 8q-8 16 -5 37.5t13 37.5l20 48q40 88 91 163q18 30 40 52q2 4 5 6.5t6.5 5.5t4.5 4l4 4l12 8q8 0 8 4h12q0 4 8 4
h8h4q20 0 28 -4q4 -2 9 -4t8 -3t7 -1q9 -5 19 -14.5t24 -24.5t16 -17q53 -44 132 -44h39q75 0 128 44q3 4 12.5 13.5l16 16t15 14.5t15.5 12q3 2 10 4t10 4h4q4 4 24 4h12z" />
    <glyph glyph-name="company-card" unicode="&#xe00c;" 
d="M1560 1364q31 0 62 -30.5t31 -59.5v-872q0 -29 -31 -59.5t-62 -30.5h-204h-868q-31 0 -62 30.5t-31 59.5v1244q0 29 31 59.5t62 30.5h700q31 0 62 -30.5t31 -59.5v-192q0 -25 23.5 -51.5t51.5 -35.5q10 -3 18 -3h186zM1277 906v1v85l-196 -123v142l-193 -145l-5 210
l-2 124h-55h-90h-53l-3 -123l-20 -463l-3 -58h59h505h56v56v294z" />
    <glyph glyph-name="company" unicode="&#xe00d;" 
d="M408 1642h240l22 -678l2 -1l344 229v-228l343 228v-229l343 229v-786h-1349z" />
    <glyph glyph-name="contract" unicode="&#xe00e;" 
d="M1504 1736q31 0 79.5 -30.5t59.5 -59.5q30 -73 39 -132t5 -106.5t-21 -131.5v-2q-18 -88 -52 -188.5t-59.5 -171.5t-43.5 -152.5t-9 -171t49 -188.5q12 -30 -2.5 -60t-44.5 -30h-204h-756q-31 0 -79.5 30.5t-59.5 59.5q-41 101 -48 199t12.5 179.5t50.5 162.5t61.5 162
t50 163t13 179.5t-47.5 198.5q-12 30 2.5 60t44.5 30h588h31h341zM745 1422q-1 -22 -2 -43q-1 -9 4.5 -15t14.5 -6h315q3 0 6 1q6 2 9 5q7 6 8 15q2 22 2 43q0 10 -6 16q-1 1 -8 3q-1 0 -3.5 1.5t-3.5 1.5h-314q-10 0 -16 -6t-6 -16zM937 706q2 22 6 42q1 10 -4 16q0 1 -7 3
q-1 1 -3 2t-4 1h-314q-10 0 -17 -6t-9 -16q-3 -22 -6 -42q-1 -10 4.5 -16t14.5 -6h157.5h156.5q3 0 7 1q6 2 10 5q6 6 8 16zM1355 912q5 19 13 43q3 9 -2 15q0 1 -7 4q-1 0 -3 1.5t-3 1.5h-687q-10 0 -18 -6.5t-11 -15.5q-9 -32 -12 -43q-3 -9 1 -15t14 -6h687q3 0 7 1
q6 2 10 5q8 6 11 15zM1418 1119q6 18 13 43q2 9 -2 15q-1 1 -8 3q0 1 -2 2t-4 1h-687q-9 0 -17 -6t-10 -15q-5 -16 -13 -43q-3 -10 1.5 -16t13.5 -6h687q3 0 7 1q7 2 10 5q9 7 11 16z" />
    <glyph glyph-name="control-panel" unicode="&#xe00f;" 
d="M1787 1115q37 0 63.5 -26.5t26.5 -64.5t-26.5 -64.5t-63.5 -26.5h-223q-35 0 -62 25q-17 -126 -94 -226q37 -1 62 -26l157 -157q27 -27 27 -64.5t-26.5 -64t-64 -26.5t-64.5 27l-157 157q-25 25 -26 62q-101 -77 -226 -94q25 -26 25 -62v-223q0 -37 -26.5 -63.5
t-64.5 -26.5t-64.5 26.5t-26.5 63.5v223q0 36 25 62q-125 17 -226 94q-1 -38 -26 -62l-157 -157q-27 -27 -64.5 -27t-64 26.5t-26.5 64t27 64.5l157 157q25 25 62 26q-77 101 -94 226q-26 -25 -62 -25h-223q-37 0 -63.5 26.5t-26.5 64.5t26.5 64.5t63.5 26.5h223
q36 0 62 -25q17 125 94 226q-37 1 -62 26l-157 157q-27 27 -27 64.5t26.5 64t64 26.5t64.5 -27l157 -157q25 -25 26 -62q101 77 226 94q-25 26 -25 62v223q0 37 26.5 63.5t64 26.5t64.5 -26.5t27 -63.5v-223q0 -36 -25 -62q125 -17 226 -94q1 37 26 62l157 157
q27 27 64.5 27t64 -26.5t26.5 -64t-27 -64.5l-157 -157q-25 -25 -62 -26q77 -101 94 -226q26 25 62 25h223zM1084 1384v-217l153 153q-69 50 -153 64zM965 1167v217q-85 -14 -154 -64zM881 1083l-154 153q-49 -68 -63 -153h217zM881 965h-217q14 -85 63 -153zM965 881
l-154 -154q70 -49 154 -63v217zM1084 881v-217q84 14 153 64zM1167 965l153 -153q50 68 64 153h-217zM1167 1083h217q-14 85 -64 153z" />
    <glyph glyph-name="decide" unicode="&#xe010;" 
d="M1024 1717q150 0 287 -47.5t236 -128t158 -192t59 -233.5t-59 -233.5t-158 -192t-236 -128t-287 -47.5q-57 0 -115 8q-58 -58 -123 -96.5t-136 -58t-133.5 -27.5t-139.5 -10v39q80 39 132.5 102.5t52.5 135.5q0 19 -3 41q-128 84 -201.5 206t-73.5 261q0 122 59 233.5
t158 192t236 128t287 47.5zM850.5 1066q21.5 48 3 97.5t-66.5 71.5q-49 22 -98.5 3.5t-71 -67t-3 -98t67 -71.5t98 -3t71 67zM1075 641l300 113l-113 301l-59 -129l-225 100l-70 -155l225 -101zM1263 1147l132 292l-292 133l50 -133l-236 -91l60 -159l236 90z" />
    <glyph glyph-name="do-it" unicode="&#xe011;" 
d="M1024 1717q150 0 287 -47.5t236 -128t158 -192t59 -233.5t-59 -233.5t-158 -192t-236 -128t-287 -47.5q-58 0 -115 8q-57 -58 -122.5 -96.5t-136.5 -58t-133.5 -27.5t-139.5 -10v39q79 39 132 102.5t53 135.5q0 20 -3 41q-128 84 -201.5 206t-73.5 261q0 122 59 233.5
t158 192t236 128t287 47.5zM1024 685q52 0 88.5 37t36.5 88.5t-36.5 88.5t-88.5 37t-88.5 -37t-36.5 -88.5t36.5 -88.5t88.5 -37zM1127 1034l16 446h-241l19 -446h206z" />
    <glyph glyph-name="dog" unicode="&#xe012;" 
d="M1547 1761q4 1 14 -7.5t19.5 -18t11 -10.5t4 3t6 10.5l7 13t7.5 11.5t6 5q14 -28 26.5 -83t25.5 -79q16 -30 44.5 -56.5t53.5 -42t65 -38.5t61 -37q4 -18 -28.5 -81.5t-31.5 -83.5l-61 -3q-24 -1 -72.5 18t-76.5 15q-18 -3 -39 -18.5t-36 -19.5q-7 -150 -40 -629
q-1 -20 -5 -54t-6.5 -54.5t-3.5 -51.5t4 -45q3 -20 18 -36t34.5 -32.5t27.5 -29.5q-16 -29 -46 -37t-59 1.5t-55 29.5t-35 44q-16 38 -16.5 105t0 135.5t-12.5 106.5q-15 -50 -35 -148t-28 -134q10 -13 30 -24.5t31 -23.5t8 -33q-8 -57 -144 -49q-32 33 -42.5 82.5t-4 101.5
t14.5 112t13 113t-10 106q-57 6 -154 27.5t-179.5 33t-154.5 4.5q-19 -28 -33.5 -51.5t-31 -54t-27 -57.5t-21 -62t-13.5 -68t-5 -74.5t5 -82.5q3 -14 17.5 -29t29 -25t23.5 -23t4 -26q-4 -11 -12 -17.5t-22 -8.5t-27 -2t-36.5 1t-39.5 0q-101 134 -104 363
q-36 -49 -52 -114.5t-1 -131t65 -101.5q-6 -8 -16.5 -13.5t-20.5 -8.5t-28 -4.5t-28 -1.5t-32 0.5t-31 0.5q-28 48 -39.5 130t-0.5 173q3 18 12.5 65.5t15 92.5t1.5 86q-3 33 -22.5 103t-17.5 103q1 30 32 91.5t31 92.5q0 30 -18.5 75.5t-37 82.5t-27 90t13.5 99
q15 1 32.5 -7.5t30.5 -8.5q11 -24 21.5 -67t18.5 -73t28.5 -59t52.5 -39q108 6 204 1.5t191 -5.5t174.5 2.5t154.5 26.5t132 67q25 19 52.5 48.5t58.5 67.5t50 57q28 30 48 55.5t44 60t45 61.5z" />
    <glyph glyph-name="drink" unicode="&#xe013;" 
d="M1487 1542h-912l376 -376q46 -46 80 -46t80 46zM1665 1631q47 0 57.5 -24.5t-23.5 -55.5l-495 -499q-44 -41 -51.5 -55.5t-7.5 -58.5v-524h233q47 0 80.5 -35t33.5 -83h-921q0 48 33.5 83t80.5 35h232v524q0 44 -7.5 58.5t-51.5 55.5l-494 499q-35 31 -24.5 55.5
t58.5 24.5h1267z" />
    <glyph glyph-name="e-mail" unicode="&#xe014;" 
d="M310 1424q-32 18 -44 50q-14 36 27 42h13h1436q46 0 44 -30q-3 -28 -36 -54l-12 -8q-23 -12 -325.5 -174.5t-311.5 -167.5q-32 -17 -77 -17t-77 17q-7 4 -637 342zM1755 1254q12 7 19.5 7.5t10 -4.5t3 -9t0.5 -12v-623q0 -27 -28 -54t-56 -27h-1360q-28 0 -56 27t-28 54
v623q0 8 0.5 12t3 9t10 4.5t19.5 -7.5q8 -4 174.5 -91t316.5 -165.5t163 -85.5q33 -17 77 -17t77 17q8 5 654 342z" />
    <glyph glyph-name="earth" unicode="&#xe015;" 
d="M1042 1113q-9 -1 -13.5 -4.5t-4.5 -5v-2.5q2 -2 13 -3.5t31 -7t42 -17.5q11 -7 21 -10.5t16.5 -5t13 -0.5t10 2t8 3t5 2t2.5 1q5 1 7 2t4 3t-1 4t-10 5q-10 4 -21.5 -1t-14.5 -5q-2 0 -43 21t-65 19zM975 1616q-12 -3 0 -11q9 -6 21 -8q11 0 20.5 -1.5t18 -6t8.5 -11.5
t-10 -17q-4 -4 7 -7q18 -6 39 -6q24 0 19 22q-2 6 -13 13.5t-25.5 14.5t-17.5 9q-6 9 -67 9zM892 1622q-38 7 -39 -4q-1 -4 5 -8q11 -11 3 -11q-7 0 -30 8q-8 2 -27.5 9.5t-28.5 9.5t-25 -1t-33 -15l-28.5 -19t-31 -20.5t-25 -17.5t-20.5 -18t-8 -14q1 0 2.5 1t7 4l11 6
t12.5 6t13.5 5.5t13.5 4.5t12.5 2.5t10 -0.5t6.5 -5q8 -11 6 -51.5t6 -55.5q-15 15 -18 -12q-1 -13 -9.5 -33t-16 -37t-6 -43.5t15.5 -55.5q15 -28 21 -46.5t4.5 -23.5t-1 -11.5t3.5 -10.5q6 -7 13 -17.5t10 -15.5t5 -4q2 2 -3 19.5t-11 36t-5 21.5q3 3 4.5 -2t5.5 -17
t9 -21q2 -3 9.5 -11.5t12 -14t10 -13t8.5 -14t3 -11.5q0 -12 2 -20.5t13.5 -20.5t33.5 -21q17 -7 46.5 -18t50 -19t28.5 -12q10 -3 14 -2t7.5 -0.5t9.5 -6.5q6 -6 13 -18.5t11 -15.5q51 -33 59 -33q3 1 9.5 6.5t11.5 5.5t18.5 -8.5t15.5 -13.5q0 -27 -3 -30q0 -2 -11.5 -18
t-20.5 -37.5t-5 -36.5q1 -2 -0.5 -10.5t3.5 -18.5t22 -26q13 -15 21.5 -32t19.5 -29.5t38 -27.5q20 -12 25 -33t-5 -49.5t-17.5 -45.5t-20.5 -42q-2 -3 -3 -5q-12 -27 -11.5 -64t14.5 -43q3 0 7.5 1.5t7.5 1.5q2 2 21 33t41 43q84 55 122 89q16 12 40.5 44t42.5 42
q17 9 49.5 57t55.5 99.5t14 67.5q-9 15 -35 20.5t-54.5 6.5t-35.5 4q-9 4 -12 25.5t-16 29.5q-8 6 -44 15.5t-72 30.5q-22 13 -42 17.5t-30.5 2.5t-19.5 -5t-10 -3q-1 -1 -17 -13t-32.5 -22.5t-23.5 -10.5q-2 0 -14.5 1t-23 3t-23 7t-20 16.5t-8.5 27.5q-1 19 -9.5 32
t-18 17t-18.5 6.5t-9 3.5q-1 0 3 11t5.5 23t-8.5 18q-6 2 -20 -7.5t-27.5 -19.5t-30 -8t-26.5 25q-11 25 -9.5 43t14 31.5t25.5 20.5t25 10q34 9 57.5 3.5t35.5 -16t21 -19.5t15 -8q6 4 2.5 13.5t-8 26.5t-1.5 24q5 11 24 30t19 25q0 2 -0.5 11t-0.5 16t2 17t6.5 17
t13.5 13.5t22 8.5q-9 16 0 22q5 1 10 6t7.5 5.5t13.5 -5.5q1 0 3 1t7 4t8.5 5.5t7.5 6t3.5 5.5t-2.5 5q-3 3 -11.5 7t-12.5 7t-4.5 8.5t10.5 14.5t34 22q-65 52 -86 61q-13 3 -17 0t-11 -1.5t-21 10.5l-23 8q-19 3 -17 -14q15 -66 -5 -66q-9 -1 -26 11q-7 6 -15.5 11.5
t-13.5 8.5t-12 8q-11 6 -14.5 8.5t-6 6.5t0 7t9.5 8q8 6 16.5 10.5t12 6t7 4t3 4t-1.5 6.5q-2 4 4.5 11t5.5 7.5t-22 -0.5q-19 -1 -32.5 7.5t-25 18.5t-22.5 11zM975 1662q-3 -3 -3 -13q-1 -1 -3.5 -3t-4 -3.5t-3 -3.5t-1 -3t2.5 -2q8 -4 31.5 1.5t29.5 23t-15 16.5
q-25 -1 -34 -13zM1045 1677q-27 -23 -12 -34q4 -2 17.5 -3t35 -8.5t45.5 -28.5q14 -14 49 -35.5t43 -13.5q6 2 4 10t-6 14.5t-9.5 17.5t-6.5 20q0 19 -19.5 34t-41.5 18q-9 1 -25.5 4.5t-29 6.5t-25 3t-19.5 -5zM1024 1766q151 0 288.5 -59t237 -158.5t158 -237t58.5 -287.5
q0 -151 -58.5 -288.5t-158 -237t-237 -158t-288.5 -58.5q-150 0 -287.5 58.5t-237 158t-158.5 237t-59 288.5q0 150 59 287.5t158.5 237t237 158.5t287.5 59z" />
    <glyph glyph-name="east" unicode="&#xe016;" 
d="M1047 336q-10 -10 -16.5 -7t-6.5 16v380q0 13 -9.5 22.5t-22.5 9.5h-647q-13 0 -22.5 9.5t-9.5 23.5v468q0 14 9.5 23.5t22.5 9.5h647q13 0 22.5 9.5t9.5 22.5v380q0 13 6.5 16t16.5 -7l665 -665q10 -10 10 -23t-10 -23z" />
    <glyph glyph-name="elephant" unicode="&#xe017;" 
d="M1695 314q-6 -14 -26 -23.5t-34 -12t-38 -6.5q-28 -2 -34.5 -1t-24.5 6t-38 8q-15 63 -7 140q3 6 1.5 36.5t-2 40.5t-3 43.5t-3.5 43.5q-1 6 -2 46t-4 51q-6 27 -46.5 62t-71.5 49q-32 13 -78.5 13t-89.5 -7t-94 -10t-93 6q-27 -39 -40.5 -89.5t-15 -100.5t-0.5 -106
t4 -105t-3 -99q-27 -4 -61 -14.5t-53.5 -16t-47.5 -2t-56 21.5q29 153 27 394q-1 77 -10.5 149t-27.5 108q-14 27 -39 47t-49.5 29.5t-56.5 24.5t-52 30q-25 -21 -81.5 -47.5t-77.5 -39.5q3 -57 -8.5 -108t-29.5 -90.5t-36 -78.5t-29 -86.5t-8 -99.5q8 -9 21.5 -6t26.5 11
t28 11t26 -5q20 -15 -7 -43q-34 -36 -86 -35q-15 1 -29 5q-41 13 -49.5 58t4.5 94.5t31 120t20 109.5q2 43 -1 102t-7 105t-3 99.5t11 92.5q8 33 34.5 90.5t30.5 84.5q3 17 6.5 48.5t6 47t10.5 35.5t21 33q44 44 158 38q38 -1 84.5 -14.5t63.5 -22.5q24 -13 42.5 -30t30 -40
t18.5 -42t11 -50.5t5.5 -50.5t3.5 -55q0 -16 1 -24q1 -29 -14 -55.5t-37 -45t-44 -33t-35.5 -24t-10.5 -12.5q5 -7 19 -7.5t33 5t40 15.5t41.5 26.5t37.5 35t27.5 43.5t11.5 51q2 45 0 85t-6 69t-10.5 53t-13 40t-13.5 28.5t-13.5 19.5t-11.5 11.5t-7 6l-2 1.5
q134 21 263.5 21t249.5 -20t226.5 -64.5t189.5 -111.5q133 -108 169 -224q15 -48 26 -128t15.5 -139t9.5 -152q-24 11 -34.5 41.5t-16 77t-11.5 65.5q-11 -23 -17.5 -48.5t-13 -55.5t-11.5 -47q-8 -30 -38.5 -103.5t-50 -138t-16.5 -111.5z" />
    <glyph glyph-name="folder" unicode="&#xe018;" 
d="M1669 1237q45 0 56.5 -17.5t8.5 -52.5l-59 -641q-3 -36 -17.5 -53.5t-60.5 -17.5h-1146q-45 0 -60 18t-18 53l-59 641q-3 35 8.5 52.5t56.5 17.5h1290zM1622 1394l14 -57h-1204l21 185q3 29 26.5 50t52.5 21h232q29 0 65 -15t57 -35l43 -42q21 -21 56.5 -35.5t65.5 -14.5
h485q29 0 54.5 -17t31.5 -40z" />
    <glyph glyph-name="football" unicode="&#xe019;" 
d="M1024 1797q157 0 300.5 -61.5t247 -165t164.5 -246.5t61 -300t-61 -300t-164.5 -246.5t-247 -165t-300.5 -61.5t-300.5 61.5t-247 165t-164.5 246.5t-61 300t61 300t164.5 246.5t247 165t300.5 61.5zM413 1079q22 27 39.5 58t25.5 52.5t22 64.5q15 44 25 70q4 11 15 36
q50 115 34 140q-7 10 -25 10q-4 0 -10 -1q-29 -3 -77 -75t-78 -142q-19 -43 -42 -140t-6 -129q4 -8 11 -10q13 0 53 50q9 13 13 16zM436 658q-6 33 -31 85q-16 35 -24 55q-28 80 -42 152q-2 -3 -4 -4q10 -155 101 -288zM979 1369q-3 40 -58.5 110t-91.5 75h-7
q-29 0 -72.5 -20.5t-71.5 -42.5q-22 -16 -48.5 -54t-43.5 -76q-58 -131 -53 -173q3 -26 55 -81q0 -1 4.5 -5.5l7.5 -7.5q4 -4 9 -10q14 -16 23.5 -25.5t26.5 -20t33 -10.5q26 0 87 38q20 12 27 16q17 9 44 26q42 26 65 36q5 48 36 113q11 23 16 35.5t9.5 33.5t2.5 43z
M884 1593q2 -29 63.5 -98.5t87.5 -75.5q18 -5 78 1q27 3 38 4h32q64 1 84 9q14 6 28 21.5t27.5 41t20.5 41.5t18 43q2 4 4.5 10t3.5 7q-30 56 -125 93t-191 37h-20q-30 -2 -63.5 -19t-56.5 -44q-32 -36 -29 -71zM487 665q-3 -32 2.5 -59t14.5 -45t29 -37.5t33 -30t40 -28.5
l17 -12q57 -41 100.5 -61.5t91.5 -20.5q28 0 58 8q9 25 10.5 47.5t-6.5 42.5t-17 35t-28.5 32.5t-31.5 27t-36 27.5q-24 17 -34 25q-5 5 -29 25q-62 54 -80 58q-12 2 -22 2q-26 0 -68 -20q-29 -13 -44 -16zM871 588q7 -1 16 -1q58 0 119.5 31t77.5 64q17 38 24 135
q5 87 17 129q-26 16 -71 62q-25 25 -39 37.5t-38 25t-49 13.5l-1 9v-9q-30 0 -104.5 -34.5t-105.5 -57.5q-33 -25 -54 -97t-12 -127q6 -32 45.5 -73.5t89.5 -72t85 -34.5zM1024 353q-74 0 -124 -16q54 -16 127 -16q78 0 131 18q-63 14 -134 14zM1132 673q17 -11 49 -34
q29 -22 45.5 -33t43.5 -22t50 -11h8q20 2 77 45q22 16 33 23q12 8 35 23q53 33 71.5 54.5t28.5 60t12.5 66t4.5 78.5q1 14 2 27q-17 11 -51 38q-35 27 -56 41.5t-54.5 30.5t-59.5 16q-18 0 -33 -6q-41 -16 -94.5 -56.5t-69.5 -72.5q-9 -20 -15.5 -47.5t-8 -47t-4.5 -55.5
q-5 -78 -14 -118zM1430 580q-41 -28 -62 -43.5t-51 -41t-50 -52t-34 -58.5q17 -9 37 -9q17 0 38.5 8t35 15.5t36.5 22.5q8 5 19 12q96 58 146 112q41 44 64.5 82t22.5 76q-19 2 -39 -7t-32.5 -18t-35.5 -29q-27 -23 -42 -34q-23 -16 -53 -36zM1615 1010q102 72 69 227
q-24 110 -103.5 209t-157.5 116q-12 -18 -43 -51q-21 -23 -32 -36t-22 -36t-12 -45q-1 -24 6 -54t15 -49t23 -54q31 -69 39 -104q103 -75 218 -123z" />
    <glyph glyph-name="girl" unicode="&#xe01a;" 
d="M897 654q-67 0 -120 41t-71 103h381q-18 -62 -70.5 -103t-119.5 -41zM604 1003q0 32 22.5 54.5t54.5 22.5t54.5 -22.5t22.5 -54.5t-22.5 -54.5t-54.5 -22.5t-54.5 22.5t-22.5 54.5zM1113 1080q32 0 54.5 -22.5t22.5 -54.5t-22.5 -54.5t-54.5 -22.5t-54.5 22.5t-22.5 54.5
t22.5 54.5t54.5 22.5zM1668 1270q277 -270 196 -506q-136 36 -280 186q-13 -132 -73.5 -250t-153 -203t-216.5 -134.5t-259 -49.5q-144 0 -274.5 56t-225.5 150.5t-151 225.5t-56 274q0 171 77 320t210 248l55 37l60 33q144 69 305 69q184 0 341 -88.5t253 -238.5
q96 -36 192 -129zM882 453q115 0 219.5 45t180.5 121t121 180.5t45 219.5q0 62 -13 121l-1 6l-14 20q-215 22 -384 58q-51 11 -104 31t-92 40.5t-70.5 40t-47.5 31.5l-16 12q-5 -13 -14 -34t-35.5 -65.5t-52 -66t-93 -33.5t-122.5 -13l-55 -2l-5 -25q-14 -59 -14 -121
q0 -115 45 -219.5t121 -180.5t181 -121t220 -45z" />
    <glyph glyph-name="goal" unicode="&#xe01b;" 
d="M317 946.5q0 140.5 54.5 268t147 220t220.5 147t268 54.5q168 0 317 -77q-2 -12 -1 -24l8 -100l-57 -57q-122 76 -267 76q-103 0 -197 -40.5t-162 -108.5t-108 -161.5t-40 -197t40 -197t108 -161.5t162 -108t197 -40t197 40t162 108t108 161.5t40 197.5q0 144 -76 266
l63 64l88 -7q8 -1 10 -1q9 0 17 2q81 -152 81 -324q0 -141 -55 -268.5t-147 -220t-220 -147t-268 -54.5t-268 54.5t-220.5 147t-147 220t-54.5 268zM829 946.5q0 -73.5 52 -126t126 -52.5t126 52.5t52 126.5v13l127 127l3 3q32 -68 32 -143q0 -93 -45.5 -171t-124 -123.5
t-170.5 -45.5t-170.5 45.5t-124 123.5t-45.5 170.5t45.5 170.5t124 123.5t170.5 45.5q75 0 144 -32l-3 -2l-128 -128q-5 1 -13 1q-74 0 -126 -52.5t-52 -126zM1830 1553q10 -1 13.5 -10.5t-3.5 -16.5l-184 -185q-24 -23 -57 -23h-6h-5l-105 8l-73 -72l-120 -120l-2 -3
l-117 -116l-51 -51q-10 -11 -26 -11l-43 -3h-2q-17 0 -29 13t-11 31l3 40q1 15 12 26l51 51l117 116l2 3l120 120l67 67l-9 115v7q-3 37 23 63l184 185q5 4 11 4q7 0 11.5 -4t5.5 -11l9 -124l47 47q14 14 34 14q19 0 33 -14l29 -29q14 -14 14 -33.5t-14 -33.5l-41 -41z" />
    <glyph glyph-name="group" unicode="&#xe01c;" 
d="M602 1545q67 0 114.5 -47.5t47.5 -114.5t-47.5 -114.5t-114.5 -47.5t-114.5 47.5t-47.5 114.5t47.5 114.5t114.5 47.5zM292 477l98 655h324l-99 -655h-323zM1100 1545q67 0 114 -47.5t47 -114.5t-47 -114.5t-114 -47.5t-114.5 47.5t-47.5 114.5t47.5 114.5t114.5 47.5z
M789 477l99 655h324l-99 -655h-324zM1583 1545q67 0 114.5 -47.5t47.5 -114.5t-47.5 -114.5t-114.5 -47.5t-114.5 47.5t-47.5 114.5t47.5 114.5t114.5 47.5zM1273 477l99 655h324l-99 -655h-324z" />
    <glyph glyph-name="help" unicode="&#xe01d;" 
d="M1024 1764q150 0 287 -59t236 -158t158 -236t59 -287t-59 -287t-158 -236t-236 -158t-287 -59t-287 59t-236 158t-158 236t-59 287t59 287t158 236t236 158t287 59zM738 1365l-11 -21l170 -101l12 20q23 37 49 54q24 16 67 16q52 0 69.5 -17t17.5 -45t-15 -49
q-17 -24 -53 -46q-37 -23 -128 -61l-15 -6v-208h199v109q86 43 126 77q45 39 70 86q25 48 25 109q0 111 -79 173q-76 60 -218 60q-104 0 -174 -37q-70 -39 -112 -113zM1001.5 523q53.5 0 91.5 38t38 91.5t-38 91.5t-91.5 38t-91.5 -38t-38 -91.5t38 -91.5t91.5 -38z" />
    <glyph glyph-name="home" unicode="&#xe01e;" 
d="M1765 1026h-216v-632q0 -26 -18.5 -44.5t-44.5 -18.5h-265v416q0 26 -18.5 44.5t-44.5 18.5h-267q-26 0 -44.5 -18.5t-18.5 -44.5v-416h-265q-26 0 -44.5 18.5t-18.5 44.5v632h-217q-33 0 -38.5 15.5t19.5 36.5l701 617q24 22 58.5 22t59.5 -22l702 -617
q24 -21 18.5 -36.5t-38.5 -15.5z" />
    <glyph glyph-name="house" unicode="&#xe01f;" 
d="M1259 706v-219q0 -22 -15 -37t-36 -15h-218v342q0 21 -15 36t-37 15h-219q-22 0 -37 -15t-15 -36v-342h-218q-21 0 -36.5 15.5t-15.5 36.5v519h-177q-27 0 -32 12.5t15 30.5l577 507q20 18 48.5 18t48.5 -18l354 -312q-74 -73 -74 -176q0 -16 2 -30q-29 -55 -29 -116
q0 -69 35.5 -126.5t93.5 -89.5zM1785 1035q47 -47 47 -113q0 -65 -46 -111t-111 -46q-49 0 -89 27l31 -357h-150l31 357q-41 -27 -89 -27q-70 0 -118 54q-39 45 -39 103q0 55 34 98q-7 23 -7 48q0 69 52 116q45 42 105 42q26 0 51 -9q24 37 62.5 58.5t84.5 21.5
q72 0 123.5 -51t51.5 -123q0 -48 -24 -88z" />
    <glyph glyph-name="image" unicode="&#xe020;" 
d="M1547 1707q66 0 113 -45.5t47 -110.5v-1046q0 -66 -47.5 -115t-112.5 -49h-1047q-65 0 -112 49t-47 115v1046q0 65 46.5 110.5t112.5 45.5h1047zM1166 1488q-85 0 -145 -60t-60 -145t60 -145t145 -60t145 60t60 145t-60 145t-145 60zM1525 599q13 24 -2 47l-165 251
q-18 27 -49.5 33t-57.5 -12l-166 -112q-25 -18 -56 -12t-49 31l-179 252q-13 18 -33 26.5t-41.5 5t-38 -17.5t-23.5 -35l-128 -423q-6 -21 8 -41q10 -13 40 -13h897q33 0 43 20z" />
    <glyph glyph-name="key-task" unicode="&#xe021;" 
d="M1706 1259q-2 -87 -38 -168q-35 -77 -97 -135q-61 -59 -140 -89q-82 -32 -170 -30q-111 3 -207 59l-282 -268l99 -104q20 -21 7 -48q-3 -6 -7 -10l-118 -111q-20 -20 -47 -7q-6 2 -10 7l-101 106l-73 -70q-21 -20 -48 -7q-5 2 -10 7l-113 119q-4 5 -6 10q-11 28 9 47
l533 505q-51 99 -48 210q3 89 39 168q34 77 96 136q62 58 140 89q83 32 170 30q89 -3 168 -39q77 -35 136 -96q58 -62 89 -141q32 -81 29 -170zM1421 1115q65 61 67 150t-59 154t-151 67q-89 2 -154 -59q-64 -61 -66.5 -150.5t59 -154t150.5 -67t154 59.5z" />
    <glyph glyph-name="lightbulb" unicode="&#xe022;" 
d="M972 1621v123q0 28 15.5 48t36.5 20t36.5 -20t15.5 -48v-123q0 -28 -15.5 -48t-36.5 -20t-36.5 20t-15.5 48zM758.5 1481.5q-18.5 -10.5 -42 -0.5t-37.5 34l-61 106q-14 24 -11 49t21.5 36t42 1t37.5 -34l61 -106q14 -24 11 -49.5t-21.5 -36zM531 1367q24 -15 34 -38
t-1 -41.5t-36 -21.5t-49 11l-106 61q-24 14 -34 37t0.5 41.5t35.5 22t50 -10.5zM1675 706q24 -14 34 -37.5t-0.5 -42t-35.5 -21.5t-50 11l-105 61q-25 14 -35 37.5t1 42t36 21.5t49 -11zM493 1021.5q0 -21.5 -20 -36.5t-49 -15h-122q-28 0 -48 15t-20 36.5t20 37t48 15.5
h122q29 0 49 -15.5t20 -37zM1746 1074q28 0 48 -15.5t20 -37t-20 -36.5t-48 -15h-122q-29 0 -49 15t-20 36.5t20 37t49 15.5h122zM479 767q24 14 49 11t36 -21.5t1 -42t-35 -37.5l-105 -61q-25 -14 -50 -11t-35.5 21.5t-0.5 42t34 37.5zM1569 1277q-24 -14 -49 -11t-36 21.5
t-1 41.5t35 38l105 61q25 14 50 10.5t35.5 -22t0.5 -41.5t-34 -37zM1419.5 1706q18.5 -11 21.5 -36t-11 -49l-61 -106q-14 -24 -37.5 -34t-42 1t-21.5 36t11 49l61 106q14 24 37.5 34t42 -1zM1407 1027q0 -50 -8.5 -92.5t-27 -81t-32 -61t-39.5 -61.5q-29 -42 -43.5 -66
t-30 -66.5t-17.5 -82.5h-370q-2 40 -17.5 82t-30 66.5t-43.5 67.5q-27 38 -40 60.5t-31.5 61.5t-27 81t-8.5 92q0 99 51.5 182.5t139.5 132.5t192 49t192 -49t139.5 -132.5t51.5 -182.5zM843 371v79h362v-79q0 -20 -14 -33.5t-34 -13.5h-28q-7 -38 -36.5 -63t-68.5 -25
t-68.5 25t-36.5 63h-28q-20 0 -34 13.5t-14 33.5z" />
    <glyph glyph-name="link" unicode="&#xe023;" 
d="M949 978q30 0 49 -20.5t19 -51.5v-221q0 27 20.5 47.5t49.5 20.5q24 0 43 -16t24 -39v-47q0 26 21 46.5t50 20.5q22 0 39 -13q28 -22 28 -51v-11q24 23 55 23q30 0 47 -23q16 -16 20 -33q16 -60 16 -141q0 -175 -91 -319h-394q-45 83 -110 141.5t-154 106.5
q-19 6 -31 23.5t-12 39.5q0 27 21 47.5t49 20.5q9 0 32 -9l95 -39h11q15 0 23.5 10t8.5 25v390q0 30 20.5 51t50.5 21zM1036 1896q138 0 263.5 -53.5t216.5 -144t145 -216t54 -263.5q0 -163 -72 -303.5t-197 -237.5q-17 23 -44 36q6 5 4.5 6t-7.5 -2q-23 11 -52 11h-19
q0 2 -2 4t-5.5 4.5t-4.5 4.5q16 15 23 19q16 11 38.5 42t36.5 41q16 7 46 50t51.5 90t13.5 61q-9 14 -32.5 19t-49.5 5.5t-32 2.5q-10 4 -12.5 25t-12.5 27q-7 6 -41.5 14.5t-67.5 28.5q-12 7 -22.5 11t-19 5t-15 1.5t-13 -1t-9.5 -2.5t-7.5 -3.5l-4.5 -2.5q-3 0 -31 -19.5
t-36 -19.5h-3q-76 -1 -80 47q0 14 -5 25t-11 16.5t-13.5 9t-11.5 4t-6 0.5t1 10.5t4.5 21t-5.5 15.5q-5 3 -18 -6t-26 -18.5t-28.5 -7t-26.5 23.5q-9 17 -7.5 32t6.5 25t16 18.5t19.5 12.5t17.5 7q45 10 65 0.5t34 -23t18 -13.5q7 5 3.5 14.5t-9 24t-2.5 21.5q5 8 16.5 18.5
t19.5 19t8 13.5l-1 11t0 19t3.5 18.5t11 17.5t22.5 9q-8 12 3 16q2 2 5.5 6.5t6 6.5t7 1t9.5 -6l20 12q10 9 4 15q-3 2 -10.5 5t-11.5 6t-5 8t8.5 13t29.5 19q-55 52 -74 56q-9 3 -21.5 -0.5t-26.5 8.5q-3 1 -6.5 2.5t-12 4t-13 0t-3.5 -10.5q11 -24 7 -48t-35 -4
q-7 5 -14.5 10.5t-11.5 8t-11 6.5q-13 8 -17 11.5t-3 8t10 11.5q7 4 15 7.5t12 5.5t8.5 4.5t4 5l-1.5 7.5q5 0 7 2.5t2.5 7t0.5 9t-1 10t-1 7.5q7 0 18.5 -13.5t14.5 -13.5q9 0 21.5 -2.5t17 -3.5t7.5 2l36 -32q11 -10 41.5 -28.5t38.5 -10.5l-17 52q-2 16 -18.5 28
t-36.5 14l-20 5t-25.5 5.5t-21.5 0.5t-19 -6q-12 8 -59 8q-5 0 3 -8q9 -8 0.5 -8t-27 9t-51.5 15q-39 6 -36 -7q1 -2 4 -6q12 -11 1 -11q-7 1 -24 8q-7 2 -25 9t-26.5 9t-23.5 -0.5t-28 -14.5q-13 -9 -43.5 -28.5t-44.5 -31t-14 -18.5q1 1 3.5 2t9.5 5t13.5 7t15.5 6
t15.5 4.5t12.5 0.5t8 -5q10 -16 16 -41.5t1 -33.5q-2 -1 -7.5 -2.5t-9 -8.5t-3.5 -25q-2 -11 -10.5 -29.5t-15 -34t-6 -40t14.5 -49.5q13 -26 18.5 -42.5t4.5 -22t-0.5 -9.5t5.5 -9q5 -7 10.5 -16t8.5 -14.5t4 -5.5q3 2 -7 35.5t-8 34.5q2 5 5 -4q5 -22 10 -30
q37 -47 40 -60q0 -37 43 -55q24 -11 66 -28t49 -20q8 -2 12.5 -1t8 0t7.5 -7q6 -6 13 -16.5t10 -14.5q3 -1 15.5 -8t24 -13t15 -6t7 3t5.5 4.5t4 0.5q6 0 19 -7.5t13 -12.5v-28q-9 -7 -25 -34.5t-11 -48.5q1 -3 -0.5 -9.5t3.5 -16t21 -24.5q11 -13 18.5 -29t17.5 -27.5
t34 -23.5q41 -24 13 -94h-5q-38 44 -94 44h-8v89q0 56 -38 95.5t-92 39.5t-92.5 -39.5t-38.5 -95.5v-330q-203 69 -331.5 245t-128.5 398q0 138 53.5 263.5t144.5 216t216.5 144t263.5 53.5z" />
    <glyph glyph-name="logout" unicode="&#xe024;" 
d="M1024 1764q150 0 287 -59t236 -158t158 -236t59 -287t-59 -287t-158 -236t-236 -158t-287 -59t-287 59t-236 158t-158 236t-59 287t59 287t158 236t236 158t287 59zM932 1486v-370q0 -34 28.5 -63t63.5 -29t63.5 29t28.5 63v370q0 35 -28.5 64t-63.5 29t-63.5 -29
t-28.5 -64zM1024 562q94 0 179.5 36.5t147.5 98.5t98.5 147.5t36.5 179.5q0 140 -76.5 254.5t-200.5 169.5v-217q43 -39 67.5 -93t24.5 -114q0 -115 -81 -196t-196 -81t-196 81t-81 196q0 61 24.5 114.5t67.5 92.5v217q-124 -55 -200.5 -169.5t-76.5 -254.5
q0 -94 36.5 -179.5t98.5 -147.5t147.5 -98.5t179.5 -36.5z" />
    <glyph glyph-name="mamut" unicode="&#xe025;" 
d="M1803 627q34 0 61 4.5t41.5 11.5t24.5 14t14 12l3 5v-139h-145q-107 0 -198.5 12t-140 24.5t-128.5 37.5q-55 18 -104 35t-71 26l-21 9v-305h-364l102 236l-344 -73v-163h-431l188 661l416 201q4 48 26 101.5t41 83.5l20 29l388 -259l186 -262q6 0 16 0.5t38.5 5t55 11.5
t58.5 22.5t55 36t38.5 53.5t15.5 74q0 24 -8 48.5t-19.5 41.5t-22.5 30.5t-19 20.5l-8 7l16 16l4.5 -2.5t12 -8t16.5 -13t19.5 -18t20.5 -23t19.5 -28t16.5 -33t11.5 -39t4.5 -43.5q0 -21 -9 -70q-13 -53 -40.5 -93.5t-55 -60.5t-61 -33t-51 -16t-34.5 -4q15 -21 44.5 -48.5
t74 -60t105.5 -54t122 -21.5zM1093 1004q61 -34 102 -42l-2 67h-101z" />
    <glyph glyph-name="man" unicode="&#xe026;" 
d="M782 1597q0 100 71 171t171 71t171 -71t71 -171t-71 -171t-171 -71t-171 71t-71 171zM1357 1231v-700h-147v-322h-372v322h-147v700h666z" />
    <glyph glyph-name="message" unicode="&#xe027;" 
d="M1024 1717q150 0 287 -47.5t236 -128t158 -192t59 -233.5t-59 -233.5t-158 -192t-236 -128t-287 -47.5q-58 0 -115 8q-57 -58 -122.5 -96.5t-136.5 -58t-133.5 -27.5t-139.5 -10v39q80 39 132.5 102.5t52.5 135.5q0 20 -3 41q-128 84 -201.5 206t-73.5 261
q0 122 59 233.5t158 192t236 128t287 47.5zM1024 1577q-49 0 -83.5 -34.5t-34.5 -83.5t34.5 -83.5t83.5 -34.5t83.5 34.5t34.5 83.5t-34.5 83.5t-83.5 34.5zM1251 694v76h-124v516h-330v-79h124v-438h-124v-75h454z" />
    <glyph glyph-name="music" unicode="&#xe028;" 
d="M1521 1740v-1052q1 -63 -47 -122t-127 -88q-95 -34 -163.5 -10.5t-94.5 94.5q-26 73 10 146.5t127 106.5q82 31 160 15v563l-531 -122v-733q2 -63 -46.5 -122t-127.5 -88q-95 -34 -163.5 -10.5t-93.5 94.5q-27 74 9.5 147t126.5 107q83 30 160 14v888z" />
    <glyph glyph-name="my-territory" unicode="&#xe029;" 
d="M638 624q-105 -64 -248 -95q-89 104 -137.5 233t-48.5 271q0 139 46.5 266t132.5 230q34 -117 91 -212q147 -242 438 -324q-71 -246 -274 -369zM940 1103q-246 70 -369 273q-64 106 -95 248q104 89 233.5 138t271.5 49q139 0 266 -47t230 -132q-118 -34 -212 -92
q-243 -146 -325 -437zM1072 1139q77 198 252 304q105 64 247 95q137 -160 175 -365q-141 108 -317 108q-101 0 -193 -37t-164 -105zM908 723q10 -142 89.5 -258t204.5 -176q-109 -33 -221 -33q-139 0 -266 47t-230 132q118 34 212 92q126 76 211 196zM1844 758.5
q0 -112.5 -55.5 -208.5t-151 -151.5t-208.5 -55.5t-208.5 55.5t-151 151.5t-55.5 208.5t55.5 208.5t151 151.5t208.5 55.5t208.5 -55.5t151 -151.5t55.5 -208.5zM1471 890.5q0 -34.5 24.5 -58.5t58.5 -24t58.5 24t24.5 58.5t-24.5 58.5t-58.5 24t-58.5 -24t-24.5 -58.5z
M1221 890.5q0 -34.5 24.5 -58.5t58.5 -24t58.5 24t24.5 58.5t-24.5 58.5t-58.5 24t-58.5 -24t-24.5 -58.5zM1640 640l-28 18q-10 7 -27 3t-28 -16q-49 -54 -128 -54t-128 54q-16 18 -37 18q-11 0 -19 -5l-26 -17q-20 -13 -11 -42q4 -15 14 -26q39 -43 93.5 -67t113.5 -24
t113.5 24t93.5 67q10 11 14 26q9 30 -10 41z" />
    <glyph glyph-name="nature" unicode="&#xe02a;" 
d="M893 1175q0 65 -32 126l107 222q36 74 87.5 74t87.5 -74l384 -793q40 83 54 113q26 54 63 54t64 -54q70 -147 126 -261l63 -131h-1206l-1 8l-21 245q104 5 176 80.5t72 179.5q0 72 -36 132q12 39 12 79zM713 1082q50 -48 50 -118q0 -69 -48.5 -117.5t-117.5 -48.5
q-51 0 -93 29l26 -307l6 -69h-158l32 376q-42 -29 -93 -29q-69 0 -117.5 48.5t-48.5 117.5q0 58 37 103q-8 24 -8 51q0 69 48.5 117.5t116.5 48.5q28 0 54 -9q25 39 66 61.5t89 22.5q76 0 130 -54t54 -130q0 -1 -0.5 -3t-0.5 -3q-2 -48 -24 -87z" />
    <glyph glyph-name="news" unicode="&#xe02b;" 
d="M1024 1764q150 0 287 -59t236 -158t158 -236t59 -287t-59 -287t-158 -236t-236 -158t-287 -59t-287 59t-236 158t-158 236t-59 287t59 287t158 236t236 158t287 59zM737 1157h-227q-20 -60 -20 -133t20 -133h227q0 23 -3 66.5t-3 66.5q0 87 6 133zM563 1291h194
q23 99 94 240q-190 -74 -288 -240zM757 757h-193q43 -82 118 -143t169 -97q-71 140 -94 240zM870 891h308q2 16 7.5 42t9 48t3.5 43q0 41 -14 133h-314q-13 -94 -13 -133q0 -38 13 -133zM1151 757h-254q34 -127 127 -267q89 133 127 267zM1485 1291q-44 82 -118.5 143
t-168.5 97q70 -140 93 -240h194zM897 1291h254q-34 128 -127 267q-89 -132 -127 -267zM1291 757q-27 -120 -93 -240q94 36 168.5 97t118.5 143h-194zM1318 891h227q20 58 20 133t-20 133h-227q0 -23 3 -66.5t3 -66.5q0 -87 -6 -133z" />
    <glyph glyph-name="northeast" unicode="&#xe02c;" 
d="M1621 648q0 -14 -6.5 -16.5t-16.5 6.5l-268 269q-10 9 -23.5 9t-22.5 -9l-457 -457q-10 -10 -23 -10t-23 10l-331 331q-10 10 -10 23t10 23l457 457q9 9 9 22.5t-9 23.5l-269 268q-9 10 -6.5 16.5t16.5 6.5h941q13 0 22.5 -9.5t9.5 -22.5v-941z" />
    <glyph glyph-name="northwest" unicode="&#xe02d;" 
d="M1400 1621q14 0 16.5 -6.5t-6.5 -16.5l-269 -268q-9 -10 -9 -23.5t9 -22.5l457 -457q10 -10 10 -23t-10 -23l-331 -331q-10 -10 -23 -10t-23 10l-457 457q-9 9 -22.5 9t-23.5 -9l-268 -269q-10 -9 -16.5 -6.5t-6.5 16.5v941q0 13 9.5 22.5t22.5 9.5h941z" />
    <glyph glyph-name="north" unicode="&#xe02e;" 
d="M1712 1047q10 -10 7 -16.5t-16 -6.5h-380q-13 0 -22.5 -9.5t-9.5 -22.5v-647q0 -13 -9.5 -22.5t-23.5 -9.5h-468q-14 0 -23.5 9.5t-9.5 22.5v647q0 13 -9.5 22.5t-22.5 9.5h-380q-13 0 -16 6.5t7 16.5l665 665q10 10 23 10t23 -10z" />
    <glyph glyph-name="notepad" unicode="&#xe02f;" 
d="M1550 1653q25 0 43.5 -18.5t18.5 -43.5v-1280q0 -25 -18.5 -43.5t-43.5 -18.5h-1052q-25 0 -43.5 18t-18.5 44v1280q0 25 18.5 43.5t43.5 18.5h154v84q0 26 18.5 44t44 18t43.5 -18t18 -44v-84h83v84q0 26 18 44t43.5 18t44 -18t18.5 -44v-84h82v84q0 26 18.5 44t44 18
t43.5 -18t18 -44v-84h83v84q0 26 18 44t43.5 18t44 -18t18.5 -44v-84h154zM675 384l203 148l-141 81zM929 598l385 615l-154 89l-386 -616zM1361 1290l20 108l-98 60v2l-76 -79z" />
    <glyph glyph-name="notification" unicode="&#xe030;" 
d="M1621 690v-97h-1194v97q0 57 40.5 97.5t97.5 40.5v309q0 161 100.5 285.5t253.5 160.5q1 42 31.5 72.5t73.5 30.5t73.5 -30t31.5 -73q154 -36 254 -160.5t100 -285.5v-309q57 0 97.5 -40.5t40.5 -97.5zM832 470h384q-18 -64 -71 -104.5t-121 -40.5t-121 40.5t-71 104.5z
" />
    <glyph glyph-name="organization" unicode="&#xe031;" 
d="M693 441v1166h662v-1166h-254v260h-154v-260h-254zM1070 1470v-153h154v153h-154zM1070 1224v-153h154v153h-154zM1070 978v-154h154v154h-154zM824 1470v-153h153v153h-153zM824 1224v-153h153v153h-153zM824 978v-154h153v154h-153zM1415 1503h330v-1062h-224h-8h-98
v237v11v814zM1625 790v139h-139v-139h139zM1625 1014v139h-139v-139h139zM1625 1238v139h-139v-139h139zM303 441v1062h330v-812v-13v-237h-98h-4h-228zM423 1377v-139h139v139h-139zM423 1153v-139h139v139h-139zM423 929v-139h139v139h-139z" />
    <glyph glyph-name="organizational-unit" unicode="&#xe032;" 
d="M583 781l-5 -5q-3 0 -4 -0.5t-1 -3.5h-5l-5 -5q-15 -18 -31 -44t-24 -43l-9 -17l-10 -25q-11 -23 0 -35l5 -4q2 -3 4.5 -4t4.5 -1h1h10q5 -5 10 -5h386q5 0 19 5q5 0 5 5q3 0 5.5 2t4.5 2q6 13 -5 35l-10 25q-14 39 -34 74l-25 30q-5 5 -10 5l-5 4l-5 5h-24q-5 -5 -10 -5
q-5 -2 -9.5 -6.5t-9.5 -10.5t-6 -7q-2 -1 -9 -6.5t-10.5 -7.5t-11 -5t-15.5 -4.5t-18 -1.5h-20q-34 0 -59 25q-20 19 -30 24h-10v5h-25zM1102 979q-8 0 -16.5 -7t-8.5 -18v-242q0 -10 8.5 -17.5t16.5 -7.5h307q29 0 44 15l153 114q8 7 8 17t-8 18l-153 113q-15 15 -44 15
h-307zM717 1078q-52 0 -88 -42t-36 -101q0 -60 36 -104.5t88 -44.5q48 0 83 44.5t35 104.5q0 59 -35 101t-83 42zM1720 1256q47 0 60 -20t9 -59l-64 -692q-2 -21 -5 -32t-11 -24t-24.5 -18t-43.5 -5h-1246q-47 0 -63 19.5t-21 59.5l-64 692q0 17 0.5 25.5t4.5 21t11.5 18
t22 10t35.5 4.5h1399zM736 1641q34 0 73 -16t61 -38l44 -45q23 -22 62 -38t72 -16h524q33 0 61.5 -19t31.5 -45l15 -60h-1304l24 198q4 33 29 56t55 23h252z" />
    <glyph glyph-name="palm" unicode="&#xe033;" 
d="M1099 1702q69 42 160.5 43.5t175 -38t128.5 -109.5q-5 -6 -15.5 -15.5t-43.5 -25.5t-67 -17l-69 74l-8 -96q-27 -19 -74 -38q65 -20 107 -66q47 -48 72.5 -106.5t28.5 -108t-1 -92t-12 -67.5l-8 -24q-195 40 -355 228q24 -139 37 -271t13.5 -230t-2 -156t-6.5 -101
q60 -13 117 -36t96 -47.5t69 -47t44 -36.5l14 -14h-953q6 5 16 15t44.5 36.5t72.5 49t98 46.5t122 36q-19 87 -19.5 231.5t9.5 263.5t25 244q-151 -173 -340 -211q-2 5 -5 13.5t-8.5 35.5t-8 54t0 66.5t12 75.5t32 77t56.5 76q43 46 108 66q-21 8 -39.5 18t-26.5 15l-9 5
l-8 96l-68 -74q-35 1 -66.5 15.5t-45.5 28.5l-15 14q45 70 129 109.5t175 38t160 -43.5q53 -32 77 -104q19 71 74 104z" />
    <glyph glyph-name="payment-card" unicode="&#xe034;" 
d="M284 684v119h1480v-119q0 -57 -40.5 -97t-96.5 -40h-1206q-56 -1 -96.5 39.5t-40.5 97.5zM1764 1364v-356h-1480v356q0 57 40.5 97.5t96.5 39.5h1206q56 0 96.5 -40t40.5 -97zM1564 1260v56q0 8 -5 13t-13 5h-285q-8 0 -13 -5t-5 -13v-56q0 -8 5 -13.5t13 -5.5h285
q8 0 13 5.5t5 13.5z" />
    <glyph glyph-name="payment" unicode="&#xe035;" 
d="M1279 1900l-206 -319h-281l-202 319l342 -28zM1504 1052l235 -235l-235 -230v146h-459v173h459v146zM1275 592v-145h464l-5 -174h-459v-140l-230 229zM1078 1478q7 -5 20 -15t51 -43t74 -67.5t83.5 -87.5t85.5 -106v-140h-460v-113l-4 -173v-113h211l-174 -178l-84 -80
l84 -79l38 -42q-30 2 -72 3t-124 2.5t-147 3.5q-7 1 -19.5 3t-48.5 14t-68.5 31t-72.5 56.5t-69 85.5t-48.5 124.5t-19.5 168.5q0 71 16 142.5t43.5 131.5t63 117t74.5 103t78.5 86.5t75 70.5t63 51.5t43.5 31.5l16 11h291z" />
    <glyph glyph-name="people" unicode="&#xe036;" 
d="M440 1034q0 105 62.5 175.5t151.5 70.5t151 -70.5t62 -175.5q0 -106 -62.5 -181t-151 -75t-151 75t-62.5 181zM670 569q-7 -15 -12 -33t-5 -49t13 -55h-344h-4h-1q-6 0 -11 1h-1q-7 1 -14 3h-2h-1q-8 3 -15 7q-1 0 -2 0.5t-1 1.5q-9 5 -14 12q-14 19 4 61l18 42
q51 112 107 176q7 8 14 13q1 1 3 2l2 1q6 4 10 6l6 2q4 2 8 3q3 1 6 1q6 1 8 1h2.5h2.5q11 -1 20 -3q1 0 1.5 -0.5t1.5 -0.5q11 -3 19 -7q7 -4 15.5 -11.5t18.5 -18t15 -13.5q39 -36 106 -38h33q22 1 44 6q-20 -39 -28 -57zM1286 869q-73 0 -135 43t-98 117.5t-36 162.5
q0 132 78.5 221t191 89t191 -89t78.5 -221q0 -88 -36 -162.5t-98.5 -117.5t-135.5 -43zM1664 432h2h1h-7h4zM1784 540q9 -20 12 -40t-5 -38q-6 -8 -15 -15q-2 0 -4 -2q-8 -5 -17 -8h-2l-0.5 -0.5l-0.5 -0.5q-7 -1 -15 -3h-3q-3 0 -10 -1h-7h-3h-192h-463h-192h-4h-1
q-7 0 -15 1h-1q-8 1 -18 4q-3 0 -3 1q-11 3 -20 8l-3 2q-11 7 -17 15q-9 18 -6.5 38.5t11.5 39.5l23 52q41 91 94 169q23 34 40 54q9 9 18 16q1 1 3 2t3 2q7 5 12 7q1 1 8 3q6 2 11 3q1 1 4 1.5l3 0.5q7 1 11 1h2.5h2.5q14 -1 26 -4q1 0 3 -1q13 -4 24 -9q9 -4 20 -14
t23.5 -23t18.5 -18q50 -45 134 -47h42q84 2 134 47q6 6 18 18.5t23 23t20 14.5q9 5 21 8q0 1 1.5 1h1.5q11 3 23 4h5q4 0 10 -1q3 -1 7 -2t11 -3q5 -2 7 -3q5 -2 11 -7q1 0 3 -1.5t3 -2.5q9 -7 18 -16q18 -21 39 -54q1 -1 3 -4t4 -5q21 -34 41.5 -74.5t30.5 -64.5l10 -23z
" />
    <glyph glyph-name="personal-card" unicode="&#xe037;" 
d="M1694 1550q63 0 108 -45t45 -108l-1 -757q0 -63 -44.5 -107.5t-107.5 -44.5h-1340q-63 0 -107.5 44.5t-44.5 107.5v757q-1 63 44 108t108 45h1340zM616 1252q-57 0 -96.5 -44.5t-39.5 -111.5t40 -114.5t96 -47.5t96 47.5t40 114.5t-39.5 111.5t-96.5 44.5zM867 727
q12 14 -1 41l-11 26q-17 43 -42 81q-12 20 -23 32q-16 18 -32 18q-19 0 -29 -6q-4 -2 -9.5 -7.5l-12 -12t-9.5 -8.5q-25 -23 -67 -24h-21q-42 1 -68 24l-8.5 8.5t-12 11t-10.5 7.5q-15 9 -34 7q-17 -3 -31 -18q-22 -23 -68 -112l-12 -26q-9 -21 2 -38t37 -17h426q25 0 36 13
zM1593 737v43q0 9 -5 15q-1 1 -7 3q-1 1 -3 2t-3 1h-557q-8 0 -13 -6q-6 -6 -6 -15v-43q0 -10 5.5 -16t13.5 -6h557q2 0 6 1q4 2 7 5q5 6 5 16zM1593 937v42q0 10 -5 16q-1 0 -7 3q-1 0 -3 1.5t-3 1.5h-557q-8 0 -13 -6q-6 -6 -6 -16v-43q0 -9 5.5 -15t13.5 -6h557q1 0 3 1
t3 2q6 2 7 3q5 6 5 16zM1370 1136v43q0 9 -5 15q-1 1 -8 4l-2 1.5t-3 1.5h-334q-8 0 -13 -6q-6 -7 -6 -16v-43q0 -9 6 -15q5 -7 13 -7h334q1 0 3 1.5l2 1.5q7 3 8 4q5 6 5 15z" />
    <glyph glyph-name="plus" unicode="&#xe038;" 
d="M1769 880q0 -13 -9.5 -22.5t-23.5 -9.5h-504q-13 0 -22.5 -9.5t-9.5 -22.5v-504q0 -14 -9.5 -23.5t-22.5 -9.5h-287q-14 0 -23.5 9.5t-9.5 23.5v504q0 13 -9.5 22.5t-22.5 9.5h-504q-14 0 -23.5 9.5t-9.5 22.5v288q0 13 9.5 22.5t23.5 9.5h504q13 0 22.5 9.5t9.5 22.5
v504q0 14 9.5 23.5t22.5 9.5h288q13 0 22.5 -9.5t9.5 -23.5v-504q0 -13 9.5 -22.5t22.5 -9.5h504q14 0 23.5 -9.5t9.5 -22.5v-288z" />
    <glyph glyph-name="plus4u-fairpay" unicode="&#xe039;" 
d="M974 366q0 -90 75 -164q-20 1 -68.5 2t-107 2t-120.5 2q-7 1 -19.5 3t-48 14.5t-68 31t-71.5 56t-67.5 85.5t-48 123.5t-19.5 165.5q0 72 16 143t43.5 130.5t62.5 116t74 102.5t78 86t74.5 69t62.5 50.5t43 31.5l16 11h289q10 -7 27.5 -21t67.5 -59t95.5 -92.5
t100.5 -119t93 -141.5q-82 21 -183 21q-181 0 -289 -62.5t-108 -167.5v-148v-195v-76zM1166 1528h-280l-201 317l341 -29l344 30zM1371 885q110 0 188 -29.5t78 -70.5v-48q0 -44 -78 -75t-188 -31t-188 31t-78 75v48q0 41 78 70.5t188 29.5zM1627 637q3 4 5.5 4.5t3.5 -1
t1 -3.5v-90q0 -50 -78 -85.5t-188 -35.5t-188 35.5t-78 85.5v90q0 2 1 3.5t3.5 1t5.5 -4.5q24 -35 95 -57.5t161 -22.5t161 22.5t95 57.5zM1627 442q3 5 5.5 6t3.5 -1t1 -5v-76q0 -57 -79 -103.5t-186.5 -46.5t-187 46.5t-79.5 103.5v76q0 3 1 5t3.5 1t5.5 -6
q25 -39 95.5 -64t160.5 -25t160.5 25t95.5 64z" />
    <glyph glyph-name="plus4u-mobile" unicode="&#xe03a;" 
d="M1311 780l339 -218l-72 -72l-0.5 -0.5l-0.5 -0.5q-90 -89 -233.5 -91t-309.5 81t-318.5 236t-236 319t-81.5 309.5t91 232.5q0 1 0.5 1.5l0.5 0.5l72 72l218 -339l-65 -173q66 -126 182 -241q115 -116 241 -182zM998 1550v100q133 0 253.5 -52t207.5 -139t139 -207.5
t52 -253.5h-101q0 112 -43.5 214t-117.5 176t-176 118t-214 44zM1349 998q0 95 -47 176t-128 128t-176 47v100q92 0 175.5 -35.5t144 -96t96 -144t35.5 -175.5h-100zM1149 998q0 63 -44.5 107t-106.5 44v100q104 0 177.5 -73.5t73.5 -177.5h-100z" />
    <glyph glyph-name="plus4u" unicode="&#xe03b;" 
d="M1948 1284v-397q0 -148 -70 -212q-77 -71 -238 -71q-76 0 -136.5 19t-97.5 52q-37 37 -51.5 81t-14.5 122v406h145v-402q0 -49 8 -76t28 -47q20 -17 54 -28.5t69 -11.5q49 0 91 16.5t55 45.5q13 26 13 101v402h145zM1199 1134v-278h-269zM1150 1284l-379 -402v402h379z
M1199 732v-119h-428v119h428zM423 1284v-305h278v-66h-278v-300h-62v300h-278v66h278v305h62z" />
    <glyph glyph-name="portal" unicode="&#xe03c;" 
d="M927 1849h187v-134h-187v134zM322 1491q-7 6 -7 15.5t7 15.5l144 124q8 7 19 7h1066q19 0 25 -15q2 -4 2 -37v-64v-30q2 -123 -2 -132q-6 -15 -25 -15h-1066q-11 0 -19 7zM927 1183v116h187v-116h-187zM1114 764v-612h-187v612h187zM1718 989q7 -6 7 -15.5t-7 -15.5
l-141 -124q-8 -6 -19 -6h-1045q-19 0 -25 14q-2 4 -2 37v64v31q-2 122 2 131q6 15 25 15h1045q11 0 19 -7z" />
    <glyph glyph-name="product" unicode="&#xe03d;" 
d="M1688 1344v-714l-608 -268v713zM348 1344l608 -269v-713l-608 268v714zM1685 1447l-669 -287l-652 287l650 259z" />
    <glyph glyph-name="reply" unicode="&#xe03e;" 
d="M1024 1717q150 0 287 -47.5t236 -128t158 -192t59 -233.5t-59 -233.5t-158 -192t-236 -128t-287 -47.5q-57 0 -115 8q-58 -58 -123 -96.5t-136 -58t-133.5 -27.5t-139.5 -10v39q80 39 132.5 102.5t52.5 135.5q0 19 -3 41q-128 84 -201.5 206t-73.5 261q0 122 59 233.5
t158 192t236 128t287 47.5zM1022.5 641q51.5 0 88 35.5t36.5 85.5t-36.5 85.5t-88 35.5t-88 -35.5t-36.5 -85.5t36.5 -85.5t88 -35.5zM1282.5 1221.5q22.5 42.5 22.5 96.5q0 98 -70 153q-67 53 -192 53q-93 0 -154 -33q-62 -34 -99 -100l-10 -18l150 -89l11 17q20 33 43 48
q21 14 60 14q45 0 60.5 -15t15.5 -40q0 -24 -13 -43q-15 -21 -47 -41q-34 -20 -113 -53l-13 -6v-183h176v96q76 38 111 68q39 33 61.5 75.5z" />
    <glyph glyph-name="request" unicode="&#xe03f;" 
d="M1130 356v283q-117 0 -202 3.5t-183.5 15t-166 32.5t-136.5 57.5t-109.5 87.5t-71 125t-34 168t14.5 217.5t62 273.5q-22 -298 65 -430q76 -112 262 -151q149 -30 499 -30v278q0 33 30 45q9 4 19 4q20 0 35 -15l593 -463q14 -15 14 -35.5t-14 -34.5l-593 -466
q-24 -24 -54 -11q-30 12 -30 46z" />
    <glyph glyph-name="reserve-time" unicode="&#xe040;" 
d="M1024 1717q150 0 287 -47.5t236 -128t158 -192t59 -233.5t-59 -233.5t-158 -192t-236 -128t-287 -47.5q-57 0 -115 8q-58 -58 -123 -96.5t-136 -58t-133.5 -27.5t-139.5 -10v39q80 39 132.5 102.5t52.5 135.5q0 19 -3 41q-128 84 -201.5 206t-73.5 261q0 122 59 233.5
t158 192t236 128t287 47.5zM1267 782q0 108 -41 190t-114 111v76q73 29 114 111t41 190h-486q0 -108 41 -190t114 -111v-76q-73 -29 -114 -111t-41 -190h486z" />
    <glyph glyph-name="role-artifact" unicode="&#xe041;" 
d="M1560 1364q31 0 62 -30.5t31 -59.5v-872q0 -29 -31 -59.5t-62 -30.5h-204h-868q-31 0 -62 30.5t-31 59.5v1244q0 29 31 59.5t62 30.5h700q31 0 62 -30.5t31 -59.5v-192q0 -25 23.5 -51.5t51.5 -35.5q10 -3 18 -3h186zM1063 487l80 532h-262l-81 -532h263zM1052.5 1091
q54.5 0 93 38.5t38.5 93t-38.5 93t-93 38.5t-93 -38.5t-38.5 -93t38.5 -93t93 -38.5z" />
    <glyph glyph-name="role" unicode="&#xe042;" 
d="M1127.5 1770q93.5 0 160 -66t66.5 -160t-66.5 -160t-160 -66t-160 66t-66.5 160t66.5 160t160 66zM694 278l138 916h453l-138 -916h-453z" />
    <glyph glyph-name="sail" unicode="&#xe043;" 
d="M1568 798q10 -21 1 -36t-33 -15h-323q-24 0 -40.5 17t-16.5 40v753q0 23 7.5 25t17.5 -19zM994 1690v-55v-204v-617q0 -28 -19.5 -47.5t-46.5 -19.5h-18h-331h-275q-1 12 11.5 57.5t40 118t67 157t98 176.5t126 174t158.5 152t189 108zM1721 642q23 0 27.5 -11t-12.5 -28
l-254 -237q-17 -16 -46 -27.5t-52 -11.5h-720q-23 0 -52 11.5t-46 27.5l-254 237q-17 17 -12.5 28t27.5 11h1394z" />
    <glyph glyph-name="search" unicode="&#xe044;" 
d="M1655 618q47 -47 47 -112.5t-46.5 -112.5t-112.5 -47t-113 47l-342 343q-109 -55 -231 -55q-102 0 -195.5 38.5t-165.5 111t-111 165.5t-39 195t39 195.5t111 165.5t165.5 111t195.5 39t195.5 -39t165.5 -111t110.5 -165.5t38.5 -195.5q0 -122 -55 -231zM618 952
q99 -99 239 -99t239 99q98 99 98 239t-98 239q-100 99 -239.5 99t-238.5 -99t-99 -239t99 -239z" />
    <glyph glyph-name="service" unicode="&#xe045;" 
d="M986 1378v-368l-180 -71l-26 -11v-47l-2 -562h-155v334h-102v2v723h465zM753.5 1489q-89.5 0 -153 63t-63.5 152.5t63.5 153t153 63.5t152.5 -63.5t63 -153t-63 -152.5t-152.5 -63zM1784 855l5 -2l-470 -202l-4 2l-3 2l-28 12l-279 123l-143 63l7 3l28 11l9 4l99 39
l313 125l428 -166zM1364 579l427 188v-443l-427 -189v444zM1256 592l28 -12l2 -1v-444l-2 1l-28 13l-380 167l-16 8v443l145 -64z" />
    <glyph glyph-name="settings" unicode="&#xe046;" 
d="M1738 890l-205 -34q-12 -36 -31 -73l121 -169l-189 -189l-170 121q-33 -17 -72 -30l-34 -206h-268l-34 206q-38 12 -72 30l-170 -121l-189 189l121 169q-18 35 -30 73l-206 34v268l205 34q13 38 30 73l-120 169l189 189l169 -120q35 18 73 30l34 205h268l34 -205
q38 -12 73 -30l169 120l189 -189l-120 -169q17 -35 30 -73l205 -34v-268zM1024 846q74 0 126 52t52 126t-52 126t-126 52t-126 -52t-52 -126t52 -126t126 -52z" />
    <glyph glyph-name="sim-card" unicode="&#xe047;" 
d="M999 988v164h132v-164h-132zM811 487v163h121v-165h-119q-2 0 -2 2zM999 485v165h132v-165h-132zM932 1152v-164h-121v162q0 2 2 2h119zM1442 1821q54 0 92.5 -38.5t38.5 -93.5v-1330q0 -55 -38.5 -93.5t-92.5 -38.5h-836q-54 0 -92.5 38.5t-38.5 93.5v1125l337 337h630z
M1386 487v663q0 29 -20.5 49t-48.5 20h-504q-28 0 -48.5 -20t-20.5 -49v-663q0 -28 20.5 -48.5t48.5 -20.5h504q28 0 48.5 20.5t20.5 48.5zM1198 1152h119l2 -2v-162h-121v164zM932 921h266h121v-434q0 -2 -2 -2h-119v232h-21h-245h-121v204h121z" />
    <glyph glyph-name="smile-happy" unicode="&#xe048;" 
d="M1024 1733q144 0 275.5 -56t226.5 -151t151 -226.5t56 -275.5t-56 -275.5t-151 -226.5t-226.5 -151t-275.5 -56t-275.5 56t-226.5 151t-151 226.5t-56 275.5t56 275.5t151 226.5t226.5 151t275.5 56zM1398 753q6 22 1.5 40t-18.5 27l-46 30q-19 12 -45 5.5t-45 -27.5
q-42 -46 -100 -71.5t-121 -25.5t-121 25.5t-100 71.5q-19 21 -44.5 27.5t-45.5 -5.5l-46 -30q-14 -9 -18.5 -27t1.5 -40q7 -25 23 -43q67 -74 158.5 -114.5t192.5 -40.5t192.5 40.5t158.5 114.5q16 18 23 43zM1123 1290q0 -47 33.5 -80.5t80.5 -33.5t80.5 33.5t33.5 80.5
t-33.5 80.5t-80.5 33.5t-80.5 -33.5t-33.5 -80.5zM697 1290q0 -47 33.5 -80.5t80.5 -33.5t80.5 33.5t33.5 80.5t-33.5 80.5t-80.5 33.5t-80.5 -33.5t-33.5 -80.5z" />
    <glyph glyph-name="smile-neutral" unicode="&#xe049;" 
d="M1024 1745q147 0 280.5 -57.5t229.5 -153.5t153.5 -229.5t57.5 -280.5t-57.5 -280.5t-153.5 -229.5t-229.5 -153.5t-280.5 -57.5t-280.5 57.5t-229.5 153.5t-153.5 229.5t-57.5 280.5t57.5 280.5t153.5 229.5t229.5 153.5t280.5 57.5zM807 1410q-48 0 -82 -34t-34 -82
t34 -82t82 -34t82 34t34 82t-34 82t-82 34zM1357 687v56q0 25 -18 43t-44 18h-542q-26 0 -44 -18t-18 -43v-56q0 -25 18 -43t44 -18h542q26 0 44 18t18 43zM1241 1178q48 0 82 34t34 82t-34 82t-82 34t-82 -34t-34 -82t34 -82t82 -34z" />
    <glyph glyph-name="smile-sad" unicode="&#xe04a;" 
d="M1024 1738q145 0 277 -57t228 -152.5t152.5 -227.5t56.5 -277t-56.5 -277t-152.5 -227.5t-228 -152.5t-277 -57t-277 57t-227.5 152.5t-152.5 227.5t-57 277t57 277t152.5 227.5t227.5 152.5t277 57zM1238.5 1406q-47.5 0 -81 -33.5t-33.5 -81t33.5 -81t81 -33.5
t81.5 33.5t34 81t-34 81t-81.5 33.5zM809.5 1406q-47.5 0 -81 -33.5t-33.5 -81t33.5 -81t81 -33.5t81 33.5t33.5 81t-33.5 81t-81 33.5zM1404 734q6 39 -27 76q-67 74 -159.5 115t-193.5 41t-193.5 -41t-159.5 -115q-33 -37 -27 -76q3 -24 21 -35l46 -30q20 -12 46 -5.5
t45 27.5q42 47 100 72.5t122 25.5t122 -25.5t100 -72.5q28 -30 62 -30q16 0 30 8l45 30q18 11 21 35z" />
    <glyph glyph-name="southeast" unicode="&#xe04b;" 
d="M648 427q-14 0 -16.5 6.5t6.5 16.5l269 268q9 10 9 23.5t-9 22.5l-457 457q-10 10 -10 23t10 23l331 331q10 10 23 10t23 -10l457 -457q9 -9 22.5 -9t23.5 9l268 269q10 9 16.5 6.5t6.5 -16.5v-941q0 -13 -9.5 -22.5t-22.5 -9.5h-941z" />
    <glyph glyph-name="southwest" unicode="&#xe04c;" 
d="M427 1400q0 14 6.5 16.5t16.5 -6.5l268 -269q10 -9 23.5 -9t22.5 9l457 457q10 10 23 10t23 -10l331 -331q10 -10 10 -23t-10 -23l-457 -457q-9 -9 -9 -22.5t9 -23.5l269 -268q9 -10 6.5 -16.5t-16.5 -6.5h-941q-13 0 -22.5 9.5t-9.5 22.5v941z" />
    <glyph glyph-name="south" unicode="&#xe04d;" 
d="M336 1001q-10 10 -7 16.5t16 6.5h380q13 0 22.5 9.5t9.5 22.5v647q0 13 9.5 22.5t23.5 9.5h468q14 0 23.5 -9.5t9.5 -22.5v-647q0 -13 9.5 -22.5t22.5 -9.5h380q13 0 16 -6.5t-7 -16.5l-665 -665q-10 -10 -23 -10t-23 10z" />
    <glyph glyph-name="status-assessment" unicode="&#xe04e;" 
d="M1687 487q40 0 68 -28t28 -67.5t-28 -67.5t-68 -28h-1239q-76 0 -129.5 53.5t-53.5 128.5v1179q0 39 28 67t68 28t68 -28t28 -67v-1170h1230zM684 669l-59 45q-22 18 -26 46t14 50l215 293q28 37 74 42l257 24q18 2 30 16l202 246l-44 37q-33 28 -23 70q5 19 19.5 32.5
t33.5 17.5l255 51q37 7 63 -20q20 -20 19 -50l-9 -255q-1 -28 -20.5 -47t-47.5 -19q-25 0 -44 16l-39 32l-241 -293q-28 -34 -71 -38l-255 -25q-19 -2 -31 -17l-175 -242q-22 -27 -55 -27q-24 0 -42 15z" />
    <glyph glyph-name="task" unicode="&#xe04f;" 
d="M1723 1406q17 -19 17 -45.5t-17 -44.5l-823 -883q-18 -19 -42.5 -19t-42.5 19l-489 521q-18 18 -18 44.5t17 45.5l186 199q17 19 42 19t42 -19l209 -223q17 -19 42 -19t42 19l556 595q17 19 41.5 19t42.5 -19z" />
    <glyph glyph-name="territory-news" unicode="&#xe050;" 
d="M1658 1707q20 0 34.5 -14.5t14.5 -34.5v-1219q0 -40 -29 -69t-69 -29h-1170q-40 0 -69 29t-29 69v975q0 20 14.5 34.5t34.5 14.5h49v-975q0 -21 14 -35t34.5 -14t34.5 14t14 35v1170q0 20 14.5 34.5t34.5 14.5h1073zM683 1510v-341q0 -20 14 -34t34 -14h342q20 0 34 14
t14 34v341q0 21 -14 35t-34 14h-342q-20 0 -34 -14t-14 -35zM1560 605v65q0 6 -4 10t-10 4h-849q-6 0 -10 -4t-4 -10v-65q0 -6 4 -10t10 -4h849q6 0 10 4t4 10zM1560 810v65q0 6 -4 10t-10 4h-849q-6 0 -10 -4t-4 -10v-65q0 -6 4 -10t10 -4h849q6 0 10 4t4 10zM1024 1218
h-244v244h244v-244z" />
    <glyph glyph-name="territory" unicode="&#xe051;" 
d="M433 519q-89 104 -137.5 233.5t-48.5 271.5q0 139 46.5 266t131.5 230q35 -118 92 -212q147 -243 438 -325q-71 -246 -274 -368q-105 -64 -248 -96zM615 1367q-65 105 -96 247q104 89 233.5 138t271.5 49q139 0 266 -46.5t230 -131.5q-118 -35 -212 -92
q-243 -147 -325 -438q-246 71 -368 274zM1433 681q65 -105 96 -247q-104 -89 -233.5 -138t-271.5 -49q-139 0 -266 46.5t-230 132.5q118 34 212 91q243 147 325 438q245 -71 368 -274zM1367 1433q105 64 247 96q89 -104 138 -233.5t49 -271.5q0 -139 -46.5 -266t-131.5 -230
q-35 118 -92 212q-147 243 -438 325q71 245 274 368z" />
    <glyph glyph-name="unicorn-universe" unicode="&#xe052;" 
d="M860 621q144 130 208 332q185 -60 298 -197q-30 -38 -66 -68q-94 -77 -214 -94t-226 27zM1197 1423q-142 -130 -205 -329q-191 62 -305 205q28 33 61 61q96 79 219 95t230 -32zM675 1448q-39 -32 -73 -74q-61 102 -91 233q102 91 231 141.5t271 52.5q139 2 266.5 -42.5
t231.5 -128.5q-116 -36 -210 -95q-7 -4 -18 -12t-13 -9q-1 0 -3 1q-11 6 -12 6q-3 2 -8.5 4t-6.5 3q-10 4 -17 7q-18 7 -35 12q-9 3 -11 3q-24 7 -47 12h-1q-51 10 -102 10h-7.5h-6.5q-21 -1 -32 -2q-10 0 -26 -3q-14 -1 -18 -2q-17 -3 -34 -7q-1 0 -6 -1q-107 -25 -197 -91
q-21 -15 -25 -18zM688 748q-79 96 -95 218.5t32 229.5q131 -146 335 -211q-62 -190 -204 -303q-38 30 -68 66zM1373 600q38 32 73 74q61 -103 91 -233q-102 -91 -231 -141.5t-271 -52.5q-139 -2 -266.5 42.5t-231.5 128.5q116 36 210 95q3 1 31 21q1 0 2 -0.5t2 -0.5
q9 -5 11.5 -6.5t7.5 -3.5t6 -2q12 -5 19 -8q14 -5 33 -11q13 -4 13 -5q22 -6 45 -11h1h1q51 -10 102 -10h8.5h6.5q18 1 31 2q11 1 27 3q12 1 17 2q17 3 35 7l5 1q124 29 222 109zM1607 1537q91 -102 141.5 -231t52.5 -271q2 -139 -43 -266.5t-129 -231.5q-36 117 -94 210
q-4 7 -12 18t-9 13l1.5 3t3.5 6.5t2 5.5q2 2 3.5 6.5t2.5 6.5q5 12 8 20q6 14 11 32q0 1 2 6t3 8q7 26 11 47q10 51 10 102v8v6q-1 22 -2 32q-1 11 -3 26q-1 13 -2 18q-3 17 -7 34q0 2 -1 7q-30 124 -109 221q-33 39 -74 73q102 61 233 91zM600 675q32 -38 74 -73
q-102 -61 -233 -91q-91 102 -141.5 231t-52.5 271q-2 139 42.5 266.5t128.5 231.5q36 -117 95 -210q1 -2 21 -31l-1 -3q-5 -9 -6.5 -12t-3.5 -8t-2 -6q-5 -12 -8 -18l-12 -34q0 -2 -1.5 -6t-1.5 -6q-7 -23 -12 -47v-1q-10 -50 -10 -102v-7.5v-6.5q1 -21 2 -32q0 -10 3 -26
q1 -14 2 -18q3 -17 7 -34q0 -2 1 -6q30 -124 109 -222zM1360 1300q77 -94 94 -214t-28 -226q-129 139 -325 202q60 186 198 299q34 -28 61 -61z" />
    <glyph glyph-name="video" unicode="&#xe053;" 
d="M1707 1005v-443q0 -27 -19.5 -46t-46.5 -19h-141q-14 0 -27 6l-114 78v-97q0 -27 -19.5 -46t-46.5 -19h-886q-27 0 -46.5 19t-19.5 46v599q0 27 19.5 46t46.5 19h886q27 0 46.5 -19t19.5 -46v-95l113 76q13 6 28 6h141q27 0 46.5 -19t19.5 -46zM1088 1231q-100 0 -171 71
t-71 171t71 170.5t171 70.5t171 -70.5t71 -170.5t-71 -171t-171 -71zM571 1288q-76 0 -130.5 54t-54.5 130.5t54.5 131t130.5 54.5t130.5 -54.5t54.5 -131t-54.5 -130.5t-130.5 -54z" />
    <glyph glyph-name="west" unicode="&#xe054;" 
d="M1001 1712q10 10 16.5 7t6.5 -16v-380q0 -13 9.5 -22.5t22.5 -9.5h647q13 0 22.5 -9.5t9.5 -23.5v-468q0 -14 -9.5 -23.5t-22.5 -9.5h-647q-13 0 -22.5 -9.5t-9.5 -22.5v-380q0 -13 -6.5 -16t-16.5 7l-665 665q-10 10 -10 23t10 23z" />
    <glyph glyph-name="woman" unicode="&#xe055;" 
d="M776 1618q0 103 72.5 175.5t175.5 72.5t175.5 -72.5t72.5 -175.5t-72.5 -175.5t-175.5 -72.5t-175.5 72.5t-72.5 175.5zM1216 1242l203 -726h-223v-334h-344v334h-223l203 726h384z" />
    <glyph glyph-name="shopping-cart" unicode="&#xe056;" 
d="M1241 497.5q0 60.5 43 103.5t103.5 43t103.5 -43t43 -103.5t-43 -103.5t-103.5 -43t-103.5 43t-43 103.5zM509 497.5q0 60.5 43 103.5t103.5 43t103.5 -43t43 -103.5t-43 -103.5t-103.5 -43t-103.5 43t-43 103.5zM769 851q-35 -10 -47 -24.5t5 -25.5t57 -11h824v-113
q0 -12 -9 -21t-21 -9h-966q-12 0 -21 9t-9 21v120l-6 69l-140 656h-146v117q0 13 8.5 21.5t20.5 8.5h234q12 0 20.5 -8.5t8.5 -21.5v-117h1026v-402q0 -13 -8.5 -23.5t-20.5 -14.5z" />
    <glyph glyph-name="search-folder" unicode="&#xe057;" 
d="M984 1012q-61 -61 -93.5 -139t-32.5 -164q0 -140 84 -254h-548q-45 0 -60 18t-18 53l-59 640q-3 36 9 53.5t56 17.5h1290q45 0 56.5 -17.5t8.5 -53.5l-22 -240q-28 48 -66 86q-61 61 -139 93t-163.5 32t-164 -32t-138.5 -93zM1565 1394l14 -57h-1204l21 185q3 29 26.5 50
t52.5 21h232q30 0 65.5 -15t56.5 -35l43 -42q21 -21 57 -35.5t65 -14.5h485q29 0 54.5 -17t31.5 -40zM1753 394q31 -32 31 -76t-31 -75t-76 -31q-44 0 -75 31l-187 187q-61 -28 -129 -28q-94 0 -172 53q-25 17 -45 37q-90 90 -90 217t90 218q90 90 217.5 90t217.5 -90
q90 -91 90 -218q0 -67 -29 -128l54 -53zM1130 709l1 -13q5 -57 45 -97q46 -46 110.5 -46t110 46t45.5 110q0 65 -45 111q-12 12 -32 23q-37 23 -79 23q-64 0 -110 -46t-46 -111z" />
    <glyph glyph-name="list" unicode="&#xe058;" 
d="M1646 682q24 0 24 -30v-182q0 -29 -24 -29h-1247q-13 0 -17 7t-4 22v182q0 10 1 15.5t6 10t14 4.5h1247zM1646 1144q24 0 24 -29v-182q0 -29 -24 -29h-1247q-13 0 -17 7t-4 22v182q0 10 1 15.5t6 9.5t14 4h1247zM1646 1607q24 0 24 -29v-182q0 -30 -24 -30h-1247
q-13 0 -17 7.5t-4 22.5v182q0 10 1 15t6 9.5t14 4.5h1247z" />
    <glyph glyph-name="mamut-plus" unicode="&#xe059;" 
d="M1810 623q25 0 46 3t35.5 7t26 9t18 10t11 9t6 7l1.5 3v-140h-144q-108 0 -199 11.5t-140 24t-129 37.5q-56 18 -104.5 36t-70.5 26l-21 9v-305h-365l101 236l-344 -73v-163h-432l189 662l417 202q4 47 26 100.5t42 82.5l20 29l387 -258l187 -262q6 0 16 0.5t38.5 5
t55 11.5t58.5 22t55 35.5t38.5 54t15.5 73.5q0 25 -8 49.5t-19.5 41.5t-22.5 30.5t-19 20.5l-8 7l17 17l7 -5t18 -13.5t24 -20.5t26.5 -29.5t24.5 -38t18 -47t7 -55.5q0 -19 -9 -71q-14 -53 -41.5 -93.5t-55 -61t-61 -33.5t-51 -16t-34.5 -4q15 -21 44.5 -48.5t74 -59.5
t105.5 -53.5t122 -21.5zM1099 1002q62 -35 103 -43l-2 66h-101v-23zM1127 1474q-13 0 -22.5 10t-9.5 23v85q0 13 9.5 23t22.5 10h178q13 0 22.5 9.5t9.5 22.5v178q0 13 10 22.5t23 9.5h86q13 0 22.5 -9.5t9.5 -22.5v-178q0 -13 9.5 -22.5t22.5 -9.5h178q13 0 23 -10t10 -23
v-85q0 -13 -10 -23t-23 -10h-178q-13 0 -22.5 -9t-9.5 -23v-178q0 -13 -9.5 -22.5t-22.5 -9.5h-86q-13 0 -23 9.5t-10 22.5v178q0 14 -9 23t-23 9h-178z" />
    <glyph glyph-name="more" unicode="&#xe05a;" 
d="M329 1024q0 66 47 113t113.5 47t113 -47t46.5 -113t-46.5 -113t-113 -47t-113.5 47t-47 113zM864 1024q0 66 47 113t113 47t113 -47t47 -113t-47 -113t-113 -47t-113 47t-47 113zM1399 1024q0 66 46.5 113t113 47t113.5 -47t47 -113t-47 -113t-113.5 -47t-113 47
t-46.5 113z" />
    <glyph glyph-name="book" unicode="&#xe05b;" 
d="M533 742q-6 0 -10.5 4t-4.5 10v866q0 7 7 11.5t14 1.5l431 -164q9 -3 9 -13v-773q0 -8 -6 -12q-4 -2 -9 -2q-3 0 -6 1q-165 65 -425 70zM1781 1521.5q6 -4.5 6 -12.5v-966q0 -6 -5 -11t-12 -4q-101 10 -200 10q-273 0 -416 -76q-96 -50 -130 -50t-130 50q-143 76 -416 76
q-99 0 -200 -10q-7 -1 -12 3.5t-5 11.5v966q0 8 6 12.5t14 2.5l155 -47q11 -3 11 -15v-803q-1 -7 5 -7h33q56 0 113 -4t129.5 -13.5t142.5 -31t124 -51.5l30 -17l30 17q54 30 124 51.5t142.5 31t129.5 13.5t114 4h25q6 0 9 3t3 6v3v798q0 12 11 15l155 47q8 2 14 -2.5z
M1075 673q-6 4 -6 12v773q0 10 9 13l431 164q7 3 14 -1.5t7 -11.5v-866q0 -6 -4.5 -10t-10.5 -4q-259 -5 -425 -70q-3 -1 -6 -1q-5 0 -9 2z" />
    <glyph glyph-name="student-hat" unicode="&#xe05c;" 
d="M1551 939v-268v-1v-2q0 -61 -70.5 -113t-191.5 -82.5t-264 -30.5t-264 30.5t-191.5 82.5t-70.5 113v111v160l526 -162zM479 1033l70 34l9 21l-124 -28v-31l-23 -374q-23 -14 -49 -19t-46 -2.5t-36.5 7t-25.5 9.5l-10 5q-5 38 4.5 95t27.5 111t36.5 102.5t32.5 78.5l14 30
l8 25l59 14l39 17h-90l-66 -38l-165 58l881 339l881 -339l-355 -127l-526 -162l-526 162z" />
    <glyph glyph-name="exercise-book" unicode="&#xe05d;" 
d="M555 1738h1091v-1408h-1091v158q-40 0 -63 -17q-17 -13 -25 -35.5t-6.5 -44t1.5 -44.5q2 -24 -17.5 -33.5t-39.5 0t-21 33.5q-3 59 6.5 102.5t44.5 75.5q41 39 120 40v216q-40 0 -63 -17q-17 -13 -25 -35.5t-6.5 -44t1.5 -44.5q2 -24 -17.5 -33.5t-39.5 0t-21 33.5
q-3 59 6.5 102.5t44.5 75.5q41 39 120 41v216q-40 -1 -63 -18q-17 -13 -25 -35.5t-6.5 -44t1.5 -44.5q2 -24 -17.5 -33.5t-39.5 0.5t-21 33q-3 59 6.5 102.5t44.5 75.5q41 39 120 41v216q-40 -1 -63 -18q-17 -13 -25 -35.5t-6.5 -44t1.5 -43.5q2 -24 -17.5 -34t-39.5 0
t-21 34q-3 58 6.5 101.5t44.5 76.5q41 39 120 40v216q-40 -1 -63 -18q-17 -12 -24.5 -34.5t-6.5 -44.5t1 -44q2 -24 -17.5 -34t-39.5 0t-21 34q-3 58 7 101.5t44 76.5q41 39 120 40zM1397 1204v316h-593v-316h593z" />
    <glyph glyph-name="pin" unicode="&#xe05e;" 
d="M1560.5 1639.5q108.5 -90.5 155.5 -190t5.5 -150t-147.5 -22t-214.5 119t-155.5 190t-5.5 149.5t147.5 22t214.5 -118.5zM1193 1483q29 -81 108.5 -146.5t155.5 -87.5q3 -1 3 -3.5t-2.5 -7.5t-7 -10.5t-11.5 -13t-14.5 -15l-17 -17t-18 -17t-19 -17.5t-18.5 -18
q-23 -23 -20.5 -55t26.5 -55q81 -78 42 -149q-10 -18 -21.5 -35.5t-29 -39t-37 -38t-45.5 -33t-54 -23t-62 -8.5t-70 10q-29 8 -70 28t-70 39q-152 100 -272 293q-6 10 -8.5 13.5t-12 23t-13 33t-7.5 38.5t-0.5 44.5t13.5 46t29.5 48.5t52.5 46t77 44q80 37 167 -30
q24 -21 55 -21t51 24q16 19 25 30t25.5 29.5t24.5 26t21 19t16 9t8 -4.5zM693 784q20 21 42 29t34 -1t7 -30.5t-24 -41.5l-291 -310q-20 -21 -43.5 -38t-37.5 -20t-22.5 3t-6.5 18.5t17 36t34 44.5z" />
    <glyph glyph-name="tie" unicode="&#xe05f;" 
d="M1048.5 1565q-35.5 0 -56 1.5t-50.5 10.5t-48 27q-34 34 -67.5 99.5t-34.5 117.5q0 32 25 54t67 31.5t81 13.5t83.5 4t83 -4t81 -13.5t67 -31.5t24.5 -54q0 -52 -33.5 -117.5t-68.5 -99.5q-17 -18 -47 -27t-50.5 -10.5t-56 -1.5zM1165 1470q11 0 19 -6.5t9 -15.5
l162 -973q3 -28 -7.5 -57t-34 -58.5t-43.5 -50t-50 -47.5l-172 -156l-166 159q-31 29 -47.5 46t-40.5 47t-34 57.5t-7 53.5l149 979q1 9 9.5 15.5t19.5 6.5h234zM1414 1035q15 -32 22.5 -70t3.5 -60t-22 -34.5t-39.5 -8t-41.5 32t-26 62.5l-71 396q-6 35 0 37t21 -30z" />
    <glyph glyph-name="selection" unicode="&#xe060;" 
d="M837 1633v-277q0 -57 -40.5 -97.5t-97.5 -40.5h-277q-57 0 -97.5 40.5t-40.5 97.5v277q0 57 40.5 97.5t97.5 40.5h277q57 0 97.5 -40.5t40.5 -97.5zM745 1356v277q0 19 -13.5 32.5t-32.5 13.5h-277q-19 0 -32.5 -13.5t-13.5 -32.5v-277q0 -19 13.5 -32.5t32.5 -13.5h277
q19 0 32.5 13.5t13.5 32.5zM635 729q39 0 66.5 -27.5t27.5 -66.5v-187q0 -39 -27.5 -66.5t-66.5 -27.5h-187q-39 0 -66.5 27.5t-27.5 66.5v187q0 39 27.5 66.5t66.5 27.5h187zM1118 729q38 0 65.5 -27.5t27.5 -66.5v-187q0 -39 -27.5 -66.5t-65.5 -27.5h-188
q-38 0 -65.5 27.5t-27.5 66.5v187q0 39 27.5 66.5t65.5 27.5h188zM1600 1211q39 0 66.5 -27.5t27.5 -65.5v-188q0 -38 -27.5 -65.5t-66.5 -27.5h-187q-39 0 -66.5 27.5t-27.5 65.5v188q0 38 27.5 65.5t66.5 27.5h187zM425 1122h303l0.5 -1.5t0.5 -2.5v-188
q0 -38 -27.5 -65.5t-66.5 -27.5h-187q-39 0 -66.5 27.5t-27.5 65.5v188q0 9 2 18q33 -14 69 -14zM1118 1211q38 0 65.5 -27.5t27.5 -65.5v-188q0 -38 -27.5 -65.5t-65.5 -27.5h-188q-38 0 -65.5 27.5t-27.5 65.5v188q0 7 1 16q61 21 93 77h187zM1118 1694q38 0 65.5 -27.5
t27.5 -66.5v-187q0 -39 -27.5 -66.5t-65.5 -27.5h-162v334q0 19 -6 41h168zM1600 1694q39 0 66.5 -27.5t27.5 -66.5v-187q0 -39 -27.5 -66.5t-66.5 -27.5h-187q-39 0 -66.5 27.5t-27.5 66.5v187q0 39 27.5 66.5t66.5 27.5h187zM1600 729q39 0 66.5 -27.5t27.5 -66.5v-187
q0 -39 -27.5 -66.5t-66.5 -27.5h-187q-39 0 -66.5 27.5t-27.5 66.5v187q0 39 27.5 66.5t66.5 27.5h187z" />
    <glyph glyph-name="osvc" unicode="&#xe061;" 
d="M1399 855q103 0 176 -27.5t73 -66.5v-44q0 -42 -73 -71t-176 -29t-176 29t-73 71v44q0 39 73 66.5t176 27.5zM1638 623q3 4 5.5 4.5t3.5 -1t1 -3.5v-84q0 -47 -73 -80t-176 -33t-176 33t-73 80v84q0 2 1 3.5t3.5 1t5.5 -4.5q22 -33 88.5 -53.5t151 -20.5t150.5 20.5
t88 53.5zM1638 441q3 5 5.5 6t3.5 -1t1 -5v-71q0 -53 -74 -96.5t-174.5 -43.5t-175 43.5t-74.5 96.5v71q0 3 1.5 5t3.5 1t5 -6q23 -36 89 -60t150 -24t150 24t89 60zM1073 589h-338h-228q-3 -1 -6 -1h-1q-8 0 -18 1h-1q-11 2 -21 5q-3 0 -4 1q-12 3 -23 10q-1 0 -2.5 1
l-1.5 1q-14 9 -21 19t-7.5 28t3.5 34.5t11 30.5l27 63q48 109 111 203q28 40 49 64q10 12 21 20q1 1 3.5 2.5t3.5 2.5q8 6 15 9q1 0 4.5 1.5t4.5 1.5q7 3 13 4q4 1 9 2q7 1 12 1h3.5h3.5q15 -1 31 -5l3 -1q16 -5 28 -11q11 -5 24 -16.5t28 -27.5t22 -21q60 -55 160 -57h50
q100 2 159 57q7 6 21.5 21.5t27.5 27.5t24 18q9 5 24 10q1 0 4 1q13 3 27 4h7q3 0 12 -1l8 -2q6 -1 13 -4q6 -2 8 -4q4 -2 13 -8q1 -1 3.5 -2.5t4.5 -2.5q11 -8 20 -19q21 -25 48 -65q5 -8 7 -11q14 -23 30 -52q-57 10 -120 10q-84 0 -155.5 -16t-112.5 -43t-41 -59v-56
v-118v-51zM739 1405q0 128 79.5 213.5t193.5 85.5t193.5 -85.5t79.5 -213.5q0 -129 -80 -220t-193 -91t-193 91t-80 220z" />
    <glyph glyph-name="person" unicode="&#xe062;" 
d="M710 1284q0 154 91 257t221 103q131 0 222 -103t91 -257q0 -101 -42 -187.5t-114 -136.5t-156.5 -50t-156.5 50t-114 136.5t-42 187.5zM1600 528q11 -22 14 -45.5t-7 -44.5q-6 -9 -17 -17q-2 0 -5 -2q-9 -6 -19 -9q-1 -1 -2 -1h-2q-8 -3 -17 -4h-2t-2 -1h-11h-9h-2h-223
h-537h-222h-5h-2q-8 0 -17 1h-1q-9 1 -20 4q-4 1 -5 1q-11 3 -22 9q-1 1 -2.5 2l-1.5 1q-13 9 -20 18q-7 10 -7.5 27.5t3.5 33t10 29.5l27 60q47 105 108 196q27 39 48 62q9 11 20 20q1 1 3.5 2t3.5 2q9 6 14 8q1 1 9 3q8 4 12 5q2 0 5 0.5t5 0.5q7 1 11 1h3.5h3.5
q16 -1 30 -4l3 -1q15 -4 28 -11q11 -5 23.5 -16t27 -26.5t20.5 -20.5q58 -52 156 -54h49q98 2 156 54q6 6 20 21t27 26.5t23 17.5q10 5 24 9q1 0 2.5 0.5l1.5 0.5q12 4 26 4h7q3 0 11 -1q4 -1 8.5 -2t12.5 -4q4 -1 8 -3q5 -3 13 -8l3 -2t4 -3q11 -8 20 -19q21 -24 46 -62
q1 -2 3.5 -5.5t3.5 -5.5q25 -39 49 -86t36 -74l11 -28z" />
    <glyph glyph-name="invoicing" unicode="&#xe063;" 
d="M1401.5 976q84.5 0 156.5 -15.5t113.5 -42.5t41.5 -59v-56q0 -33 -41.5 -61.5t-113.5 -45.5t-156.5 -17t-156 17t-113 45.5t-41.5 61.5v56q0 32 41.5 59t113 42.5t156 15.5zM1701 686q4 6 6.5 6.5t4 -1.5t1.5 -5v-104q0 -59 -91 -100.5t-220 -41.5t-220 41.5t-91 100.5
v104q0 3 1 5t4 1.5t6 -6.5q28 -40 111 -66t189 -26t188.5 26t110.5 66zM1701 459q3 6 6 7t4.5 -1.5t1.5 -5.5v-89q0 -43 -41.5 -83.5t-114 -66.5t-155.5 -26t-156 26t-114 66.5t-41 83.5v89q0 3 1 5.5t4 1.5t7 -7q28 -46 111 -75.5t188 -29.5t187.5 29.5t111.5 75.5z
M993 361h-470q-31 0 -79 30.5t-60 59.5q-40 100 -47 198t12.5 179.5t50.5 162.5t61.5 162t50 163t13 179.5t-47.5 198.5q-12 30 2.5 60t43.5 30h589h30h342q31 0 79 -30.5t60 -59.5q29 -72 38.5 -131.5t5 -107t-20.5 -131.5v-2h-1q-21 -109 -79 -269q-88 19 -189 19
q-104 0 -192.5 -19t-140 -52.5t-51.5 -72.5v-69v-145v-129v-152v-72z" />
    <glyph glyph-name="invoice-received" unicode="&#xe064;" 
d="M1645 1646q30 -72 39 -131.5t5 -107t-21 -131.5v-2q-17 -88 -51.5 -188.5t-60 -171.5t-43.5 -152.5t-9 -171t49 -188.5q12 -30 -2.5 -60t-44.5 -30h-204h-756q-31 0 -79 30.5t-60 59.5q-41 101 -47.5 199t13 179.5t50 162.5t61.5 162t50.5 163t12.5 179.5t-48 198.5
q-12 30 2.5 60t44.5 30h588h31h341q32 0 80 -30.5t59 -59.5zM1092 633l284 284h-162q-12 83 -43 151.5t-73 116.5t-97.5 85t-112 58.5t-120.5 34.5q106 -76 156.5 -185t50.5 -261h-167z" />
    <glyph glyph-name="invoice-issued" unicode="&#xe065;" 
d="M1645 1646q30 -72 39 -131.5t5 -107t-21 -131.5v-2q-17 -88 -51.5 -188.5t-60 -171.5t-43.5 -152.5t-9 -171t49 -188.5q12 -30 -2.5 -60t-44.5 -30h-204h-756q-31 0 -79 30.5t-60 59.5q-41 101 -47.5 199t13 179.5t50 162.5t61.5 162t50.5 163t12.5 179.5t-48 198.5
q-12 30 2.5 60t44.5 30h588h31h341q32 0 80 -30.5t59 -59.5zM748 611q64 13 120.5 35t112 58.5t98 85t73.5 117t42 151.5h163l-284 284l-284 -284h166q0 -153 -50.5 -262t-156.5 -185z" />
    <glyph glyph-name="databox" unicode="&#xe066;" 
d="M401 1584h45h1156h45q16 0 27 -11t11 -26v-111h30q15 0 26 -11t11 -26v-395h32q15 0 26 -11t11 -26v-466q0 -15 -11 -26t-26 -11h-1520q-15 0 -26 11t-11 26v466q0 15 11 26t26 11h32v395q0 15 11 26t26 11h30v111q0 15 11 26t27 11zM438 1509v-73h1172v73h-1172z
M371 1361v-60v-297v-60h288q14 0 24.5 -8.5t12.5 -21.5l32 -167h592l32 167q2 13 12.5 21.5t24.5 8.5h288v60v357h-1306z" />
    <glyph glyph-name="outbox" unicode="&#xe067;" 
d="M1053 1795l390 -390h-223q-28 -193 -90.5 -320t-158.5 -195.5t-239 -97.5q32 23 57 48t42 54.5t29 56t18.5 63.5t10.5 66t4.5 74t0 77t-1.5 85t-1 89h-228zM1655 984q38 0 62.5 -23.5t24.5 -60.5v-520q0 -37 -24.5 -64t-59.5 -27h-1264q-38 0 -63 27t-25 64v520
q0 37 24.5 60.5t62.5 23.5h124q31 0 55.5 -19t30.5 -50l46 -207q7 -31 31.5 -51.5t55.5 -20.5h576q32 0 56 20t31 51l45 209q7 31 31.5 49.5t55.5 18.5h124z" />
    <glyph glyph-name="inbox" unicode="&#xe068;" 
d="M662 1164h228q0 209 -69 358.5t-215 254.5q88 -18 166 -48t154 -80.5t134 -116.5t100.5 -160.5t58.5 -207.5h223l-390 -390zM1655 984q38 0 62.5 -23.5t24.5 -59.5v-520q0 -37 -24.5 -64.5t-59.5 -27.5h-1264q-38 0 -63 27t-25 65v520q0 36 24.5 59.5t62.5 23.5h124
q31 0 55.5 -19t30.5 -49l46 -208q7 -30 31.5 -50.5t55.5 -20.5h576q32 0 56 20t31 50l45 210q7 30 31.5 48.5t55.5 18.5h124z" />
    <glyph glyph-name="arrow-down" unicode="&#xe069;" 
d="M1024 569l-740 853h1480z" />
    <glyph glyph-name="arrow-down-max" unicode="&#xe06a;" 
d="M284 740h1480v-285h-1480v285zM1024 796l-740 797h1480z" />
    <glyph glyph-name="arrow-down-more" unicode="&#xe06b;" 
d="M1138 1024h626l-740 -740l-740 740h626l-626 626h1480z" />
    <glyph glyph-name="arrow-left" unicode="&#xe06c;" 
d="M569 1024l853 740v-1480z" />
    <glyph glyph-name="arrow-left-max" unicode="&#xe06d;" 
d="M740 1764v-1480h-285v1480h285zM796 1024l797 740v-1480z" />
    <glyph glyph-name="arrow-left-more" unicode="&#xe06e;" 
d="M1024 910v-626l-740 740l740 740v-626l626 626v-1480z" />
    <glyph glyph-name="arrow-right" unicode="&#xe06f;" 
d="M1479 1024l-853 -740v1480z" />
    <glyph glyph-name="arrow-right-max" unicode="&#xe070;" 
d="M1308 284v1480h285v-1480h-285zM1252 1024l-797 -740v1480z" />
    <glyph glyph-name="arrow-right-more" unicode="&#xe071;" 
d="M1024 1138v626l740 -740l-740 -740v626l-626 -626v1480z" />
    <glyph glyph-name="arrow-up" unicode="&#xe072;" 
d="M1024 1479l740 -853h-1480z" />
    <glyph glyph-name="arrow-up-max" unicode="&#xe073;" 
d="M1764 1308h-1480v285h1480v-285zM1024 1252l740 -797h-1480z" />
    <glyph glyph-name="arrow-up-more" unicode="&#xe074;" 
d="M910 1024h-626l740 740l740 -740h-626l626 -626h-1480z" />
    <glyph glyph-name="attachment" unicode="&#xe075;" 
d="M1517 1788q57 -10 109 -40.5t91 -77.5q51 -64 68.5 -142t-5.5 -152.5t-84 -124.5l-785 -639q-39 -28 -91.5 -36.5t-106.5 9.5t-88 62q-53 71 -41.5 158t75.5 139l567 463q17 15 36.5 19.5t35.5 -1t30.5 -16.5t22.5 -27t10 -33t-6.5 -35t-25.5 -32l-568 -464
q-16 -13 -20 -31t10 -38q12 -14 32 -16.5t26 5.5l785 639q36 29 37 83t-40 107q-27 34 -62.5 50t-68 13t-55.5 -22l-891 -726q-60 -49 -80 -94t-16 -96q4 -42 24.5 -86t48 -77.5t66 -62.5t78.5 -41q31 -8 60 -9t66.5 14.5t79.5 49.5l692 563q46 38 92.5 22t52.5 -58t-32 -80
l-703 -573q-58 -47 -122.5 -72t-121 -25.5t-110.5 13.5q-128 38 -224.5 156.5t-107.5 251.5q-7 86 31 173t124 157l891 726q92 75 214 54z" />
    <glyph glyph-name="bin" unicode="&#xe076;" 
d="M1195 1081l-31 -512h50l76 512h-95zM967 1081l36 -512h42l36 512h-114zM757 1081l77 -512h51l-32 512h-96zM654 398l-142 854h1024l-135 -854h-747zM1626 1366l-1204 -1q-10 0 -17 7t-7 18v121q0 10 7 17t17 7h401q0 44 29 79.5t69 35.5h202q40 0 70 -36t30 -79l403 1
q10 0 17 -7t7 -17v-122q0 -10 -7 -17t-17 -7z" />
    <glyph glyph-name="circle" unicode="&#xe077;" 
d="M596 1024q0 -116 57.5 -214.5t156 -156t214.5 -57.5t214.5 57.5t156 156t57.5 214.5t-57.5 214.5t-156 156t-214.5 57.5t-214.5 -57.5t-156 -156t-57.5 -214.5zM323 1024q0 143 55.5 272.5t149.5 223.5t223.5 149.5t272.5 55.5t272.5 -55.5t223.5 -149.5t149.5 -223.5
t55.5 -272.5t-55.5 -272.5t-149.5 -223.5t-223.5 -149.5t-272.5 -55.5t-272.5 55.5t-223.5 149.5t-149.5 223.5t-55.5 272.5z" />
    <glyph glyph-name="clock" unicode="&#xe078;" 
d="M1024 1789q150 0 290.5 -57t250.5 -167t167.5 -253t57.5 -288t-57.5 -288t-167.5 -253t-253 -167.5t-288 -57.5t-288 57.5t-253 167.5t-167.5 253t-57.5 288t57.5 288t167.5 253t250.5 167t290.5 57zM1024 1563q-105 0 -204.5 -40t-177 -117.5t-117.5 -178.5t-40 -203
t40 -203t118 -178q103 -104 242 -140.5t278 0t242.5 140t140 242.5t0 278t-140.5 242q-77 78 -176.5 118t-204.5 40zM792 1460q53 4 103 -57l239 -298q28 -35 38.5 -63t1.5 -57t-40 -57l-192 -168q-35 -31 -81.5 -29.5t-77.5 35.5q-32 33 -31 81t36 78l119 100l-186 239
q-78 93 5 165q33 28 66 31z" />
    <glyph glyph-name="copy" unicode="&#xe079;" 
d="M1546 1098h145q22 0 48 -23q25 -25 25 -44v-678q0 -22 -25 -45q-24 -23 -48 -23h-159h-673q-27 0 -50 23q-24 22 -24 45v966q0 21 24 45t50 24h542q23 0 47.5 -24.5t24.5 -44.5v-149q0 -20 18 -40q17 -21 41 -28q6 -4 14 -4zM973 1576h-365q-25 0 -50 -25
q-23 -23 -23 -44v-847h-177q-27 0 -50 24q-24 21 -24 44v967q0 21 24 44q25 25 50 25h543q22 0 47 -25t25 -44v-119z" />
    <glyph glyph-name="discussion" unicode="&#xe07a;" 
d="M899.5 1637q123.5 0 237 -39.5t196.5 -107t132.5 -162.5t49.5 -201t-49.5 -201t-132.5 -162.5t-196.5 -107t-236.5 -39.5q-24 0 -71 4q-158 -142 -418 -144q-23 0 -41 16t-24 38t3.5 45t35.5 35q23 11 38 20t33.5 25.5t28 40.5t9.5 54q-97 72 -153.5 168.5t-56.5 207.5
q0 106 49.5 201t133 162.5t196.5 107t236.5 39.5zM899.5 1527q-104.5 0 -198.5 -32.5t-161 -87t-106 -128t-39 -152.5q0 -90 48 -169.5t135 -138.5q14 -10 20 -27.5t7 -49.5q1 -71 -51 -136q138 28 220 110q19 19 45 16q41 -5 81 -5q104 0 198.5 32.5t161.5 86.5t106 127.5
t39 153t-39 153t-106 128t-161.5 87t-199 32.5zM1594 1061q78 -42 124 -108.5t46 -145.5q0 -70 -37 -131.5t-102 -104.5q-1 -10 -1 -21q0 -36 26.5 -68t66.5 -52v-19q-83 2 -148.5 22t-120.5 75q-30 -4 -58 -4q-134 0 -238 71q179 58 299.5 187.5t142.5 298.5z" />
    <glyph glyph-name="dot" unicode="&#xe07b;" 
d="M596 1024q0 116 57.5 214.5t156 156t214.5 57.5t214.5 -57.5t156 -156t57.5 -214.5t-57.5 -214.5t-156 -156t-214.5 -57.5t-214.5 57.5t-156 156t-57.5 214.5z" />
    <glyph glyph-name="filter" unicode="&#xe07c;" 
d="M1138 1039v-584l-228 -114v698l-591 611h1412z" />
    <glyph glyph-name="lock" unicode="&#xe07d;" 
d="M896 832q0 -33 15.5 -61.5t42.5 -45.5l-58 -205h256l-56 206q26 17 41 45t15 61q0 53 -37.5 90.5t-90.5 37.5t-90.5 -37.5t-37.5 -90.5zM836 1195h376v186q0 84 -55.5 146t-132.5 62q-78 0 -133 -60.5t-55 -145.5v-188zM1024 1766q76 0 147 -30t122 -79t81.5 -114.5
t30.5 -134.5v-213h74q35 0 60 -25t25 -60v-740q0 -35 -25 -60t-60 -25h-910q-35 0 -60 25t-25 60v740q0 35 25 60t60 25h74v210q0 69 30.5 135t81.5 116t122 80t147 30z" />
    <glyph glyph-name="macro" unicode="&#xe07e;" 
d="M716 1764l137 -37l-13 -98q27 -17 50 -41q23 -23 40 -52l98 10l32 -138l-91 -41q-5 -68 -39 -128l55 -80l-105 -101l-78 57q-61 -32 -129 -35l-44 -90l-137 36l13 98q-28 18 -51 42q-22 23 -39 51l-99 -10l-32 138l92 42q5 68 38 127l-54 80l105 102l78 -57q61 32 129 35
zM677.5 1511q-55.5 0 -96.5 -39.5t-43 -95.5t36 -95t93.5 -38.5t96.5 40t43 95t-36 94.5t-93.5 39zM1230 1288l52 -117q87 -4 165 -46l104 73l130 -133l-75 -103q19 -38 30 -80q11 -43 12 -86l116 -54l-50 -178l-127 13q-48 -74 -123 -120l11 -127l-179 -46l-52 117
q-88 4 -165 46l-105 -73l-129 133l75 103q-20 38 -30.5 80.5t-12.5 85.5l-115 54l50 178l127 -13q48 74 122 120l-10 127zM1254 960q-17 -1 -34 -5q-70 -18 -107 -80t-19 -132t80 -107t132 -19t106.5 80t19.5 132q-16 61 -66 97.5t-112 33.5z" />
    <glyph glyph-name="mark-exclamation" unicode="&#xe07f;" 
d="M932 1764h181q43 0 75 -35.5t29 -78.5l-70 -798q-4 -42 -42.5 -77t-81 -35t-81 35t-42.5 77l-72 798q-4 43 28.5 78.5t75.5 35.5zM1028 622q76 0 119.5 -46.5t43.5 -111.5q0 -77 -50.5 -126.5t-122.5 -49.5q-62 0 -111.5 50t-49.5 122q0 64 48.5 113t122.5 49z" />
    <glyph glyph-name="mark-info" unicode="&#xe080;" 
d="M1028 1760q76 0 119.5 -47t43.5 -111q0 -78 -50.5 -127t-122.5 -49q-62 0 -111.5 49.5t-49.5 122.5q0 64 48.5 113t122.5 49zM853 1081h-130v162q437 62 454 65q7 2 11.5 -2.5t5.5 -9.5l1 -5v-821q1 -10 8 -10l107 -5l-2 -171h-568v171l105 6q8 0 8 9v611z" />
    <glyph glyph-name="mark-question" unicode="&#xe081;" 
d="M1138 768h-285v289q163 64 235 107q73 43 107 89q35 48 35 109q0 146 -210 146q-96 0 -156 -35q-56 -33 -106 -108l-246 147q72 123 195 188q122 64 310 64q251 0 386 -100q133 -100 133 -279q0 -99 -41 -178q-40 -77 -115 -141q-72 -62 -242 -146v-152zM1131 571
q38 -40 38 -125q0 -91 -42 -126q-41 -36 -131 -36q-100 0 -136 40q-35 39 -35 122q0 86 37 125q38 38 134 38t135 -38z" />
    <glyph glyph-name="minus" unicode="&#xe082;" 
d="M1764 1164v-280q0 -12 -9.5 -21.5t-23.5 -9.5h-1414q-14 0 -23.5 9.5t-9.5 21.5v280q0 12 9.5 21.5t23.5 9.5h1414q14 0 23.5 -9.5t9.5 -21.5z" />
    <glyph glyph-name="pause" unicode="&#xe083;" 
d="M1178 1764h466v-1479h-466v1479zM404 1764h466v-1479h-466v1479z" />
    <glyph glyph-name="pencil" unicode="&#xe084;" 
d="M1109 1280l-398 -398q-11 -11 -11 -28.5t11 -28.5t28.5 -11t28.5 11l398 398q11 11 11 28.5t-10.5 28.5t-28.5 11t-29 -11zM1223 1166l-398 -398q-11 -11 -11 -28.5t11 -28.5t28.5 -11t28.5 11l398 398q11 11 11 29t-11 28.5t-28.5 10.5t-28.5 -11zM498 498h85l157 71
l-171 171l-71 -157v-85zM284 284v171l228 455l626 626l398 -398l-626 -626l-455 -228h-171zM1342 1740q30 30 80.5 30t80.5 -30l237 -237q30 -30 30 -80.5t-30 -80.5l-147 -147l-398 398z" />
    <glyph glyph-name="place" unicode="&#xe085;" 
d="M845 1291q0 -74 52.5 -126t126.5 -52t126.5 52t52.5 126t-52.5 126.5t-126.5 52.5t-126.5 -52.5t-52.5 -126.5zM1024 275q-6 11 -16 29.5t-40.5 75.5t-60.5 112.5t-71 132.5t-76.5 144.5t-72.5 138t-63.5 123.5t-45 92t-21.5 51q-14 57 -14 117q0 98 38 187.5
t102.5 153.5t153.5 102.5t187 38.5t187 -38.5t153.5 -102.5t102.5 -153.5t38 -187.5q0 -60 -14 -117q-8 -33 -125 -257.5t-229 -432.5z" />
    <glyph glyph-name="qr-code" unicode="&#xe086;" 
d="M284 1764h569v-569h-569v569zM1195 1764h569v-569h-569v569zM911 1706h226v-226h-113v113h-113v113zM398 1650v-342h342v342h-342zM1308 1650v-342h342v342h-342zM455 1593h228v-228h-228v228zM1365 1593h228v-228h-228v228zM911 1479h112v-113h-112v113zM1025 1365h112
v-113h-112v113zM911 1250h112v-225h-112v225zM683 1137h113v-112h-113v112zM343 1137h225v-113h113v-113h-225v113h-113v113zM1139 1137h225v-226h-112v113h-113v113zM1593 1137h113v-226h-226v113h113v113zM797 1023h113v-112h-113v112zM912 909h338v-113h-113v-112h-112
v112h-113v113zM1366 909h113v-113h112v-112h-338v112h113v113zM284 853h569v-569h-569v569zM398 740v-342h342v342h-342zM455 683h228v-228h-228v228zM911 682h112v-113h-112v113zM1593 682h113v-113h-113v113zM1138 682h113v-226h-113v226zM1366 568h225v-113h-112v-113
h-226v113h113v113zM911 455h226v-113h-226v113zM1593 455h113v-113h-113v113z" />
    <glyph glyph-name="reload" unicode="&#xe087;" 
d="M1499 1930l222 -620l-649 -119l160 276q-100 47 -208 47q-96 0 -186 -36.5t-160.5 -107t-107 -162t-36.5 -184.5t36.5 -184.5t107 -162t162 -107t184.5 -36.5t184.5 36.5t161.5 107.5q48 47 81 107l261 -95q-57 -117 -147 -207q-110 -110 -253 -167.5t-288 -57.5
t-288 57.5t-253 167.5t-167.5 253t-57.5 288t57.5 288t167.5 253t250.5 167t290.5 57q182 0 346 -82z" />
    <glyph glyph-name="repeat" unicode="&#xe088;" 
d="M1542 1782l46 -566l-566 46l170 170q-81 33 -168 33q-86 0 -167 -33t-145 -96q-83 -83 -113 -197l-263 -95q4 130 55 251t146 216q99 99 225.5 150.5t261.5 51.5q188 0 352 -97zM1712 1004q-4 -130 -55 -251t-146 -216q-112 -112 -258.5 -163t-297.5 -35.5t-283 93.5
l-166 -166l-46 566l566 -46l-169 -169q118 -51 250.5 -26t228.5 121q83 83 113 197z" />
    <glyph glyph-name="respond" unicode="&#xe089;" 
d="M918 356q0 -34 -30 -46q-30 -13 -54 11l-593 466q-14 14 -14 34.5t14 35.5l593 463q15 15 35 15q10 0 19 -4q30 -12 30 -45v-278q350 0 498 30q187 38 262 151q88 132 66 430q44 -150 62 -273.5t14.5 -217.5t-34 -168t-71 -125t-109.5 -87.5t-136.5 -57.5t-166 -32.5
t-183.5 -15t-202 -3.5v-283z" />
    <glyph glyph-name="set-state" unicode="&#xe08a;" 
d="M1166 1024q0 -59 42 -100.5t100.5 -41.5t100 41.5t41.5 100.5t-41.5 100.5t-100 41.5t-100.5 -41.5t-42 -100.5zM836 1048q6 123 70.5 226.5t171 163t230.5 59.5q97 0 184.5 -37.5t151 -100.5t101 -151t37.5 -184t-37.5 -184t-101 -151t-151 -100.5t-184.5 -37.5
q-124 0 -230.5 59.5t-171 163t-70.5 226.5l-552 -531v1110z" />
    <glyph glyph-name="upper-level" unicode="&#xe08b;" 
d="M446 1038q-32 0 -44 28q-12 30 10 52l451 575q14 14 34 14t34 -14l449 -575q14 -13 14 -33q0 -10 -4 -19q-12 -28 -44 -28h-269q-1 -329 182 -509t569 -215q-210 -43 -376.5 -46t-302 39t-226.5 133.5t-143 240.5t-60 357h-274z" />
    <glyph glyph-name="add-component" unicode="&#xe08c;" 
d="M1438 1104v-160q0 -7 -5 -12.5t-13 -5.5h-280q-8 0 -13 -5t-5 -13v-280q0 -8 -5.5 -13t-12.5 -5h-159q-8 0 -13.5 5t-5.5 13v280q0 8 -5 13t-13 5h-280q-8 0 -13 5.5t-5 12.5v160q0 7 5 12.5t13 5.5h280q8 0 13 5t5 13v280q0 8 5.5 13t12.5 5h160q7 0 12.5 -5t5.5 -13
v-280q0 -8 5 -13t13 -5h280q8 0 13 -5.5t5 -12.5zM796 1764v-171h-227v171h227zM1138 1764v-171h-228v171h228zM1479 1764v-171h-227v171h227zM1764 1593h-171v171h171v-171zM1764 1252h-171v227h171v-227zM1764 910h-171v228h171v-228zM1764 569h-171v227h171v-227z
M1593 284v171h171v-171h-171zM1252 284v171h227v-171h-227zM910 284v171h228v-171h-228zM569 284v171h227v-171h-227zM284 455h171v-171h-171v171zM284 796h171v-227h-171v227zM284 1138h171v-228h-171v228zM284 1479h171v-227h-171v227zM284 1764h171v-171h-171v171z" />
    <glyph glyph-name="align-justify" unicode="&#xe08d;" 
d="M398 654h569v-114h-569v114zM398 1223h1252v-114h-1252v114zM398 939h1252v-114h-1252v114zM398 1508h1252v-114h-1252v114z" />
    <glyph glyph-name="align-left" unicode="&#xe08e;" 
d="M398 654h569v-114h-569v114zM398 1223h569v-114h-569v114zM398 939h1252v-114h-1252v114zM398 1508h1252v-114h-1252v114z" />
    <glyph glyph-name="align-center" unicode="&#xe08f;" 
d="M1308 654v-114h-568v114h568zM1308 1223v-114h-568v114h568zM1650 939v-114h-1252v114h1252zM1650 1508v-114h-1252v114h1252z" />
    <glyph glyph-name="align-right" unicode="&#xe090;" 
d="M1650 654v-114h-569v114h569zM1650 1223v-114h-569v114h569zM1650 939v-114h-1252v114h1252zM1650 1508v-114h-1252v114h1252z" />
    <glyph glyph-name="background-color" unicode="&#xe091;" 
d="M1232 623h187l-319 820h-164l-318 -820h187l59 169h309zM455 1764h1138q71 0 121 -50t50 -121v-1138q0 -71 -50 -121t-121 -50h-1138q-71 0 -121 50t-50 121v1138q0 71 50 121t121 50zM1018 1236l107 -308h-213z" />
    <glyph glyph-name="text-color" unicode="&#xe092;" 
d="M1279 554l-75 208h-390l-73 -208h-236l400 1012h206l403 -1012h-235zM1008 1310l-134 -379h270z" />
    <glyph glyph-name="scissors" unicode="&#xe093;" 
d="M1330 597q0 9 -0.5 18t-6 28t-15 32.5t-30 24.5t-48.5 11q-47 0 -91 -39.5t-69 -92t-25 -95.5q0 -114 100 -114q41 0 85 36t72 89.5t28 101.5zM704 939q0 19 -4 36t-13.5 36t-30.5 30t-52 11q-39 0 -73.5 -25t-54.5 -60.5t-31 -70t-11 -57.5l-1.5 -14t-2 -26t3.5 -29
t12.5 -29t27 -21t45.5 -9q40 0 76.5 25.5t59 62t36 74.5t13.5 66zM1115 809q59 30 129 30q49 0 88 -18.5t61.5 -46t38 -61.5t21 -63t5.5 -53q0 -76 -48 -160t-122 -139.5t-143 -55.5q-49 0 -87.5 17t-61.5 43t-38 60t-20.5 63.5t-5.5 58.5l-5 87v235l-201 -117
q-93 -106 -207 -106q-45 0 -82 16t-61 41.5t-40 59.5t-23 68.5t-7 70.5q0 59 23 119.5t63 110t100 80.5t127 31q51 0 91 -19.5t64.5 -51.5t38.5 -68t18 -74l96 56v577q0 27 10.5 54t27 48.5t36.5 41t40 33.5t36.5 24.5t27.5 16.5l10 5v-692l599 346q1 -4 1 -12t-0.5 -30.5
t-3 -44.5t-9 -51t-17 -53t-28.5 -47t-42 -36l-500 -289v-105z" />
    <glyph glyph-name="undo" unicode="&#xe094;" 
d="M918 1352q126 0 202 -4q79 -2 183 -15q98 -10 166 -32q71 -22 136 -57q68 -36 111 -88q40 -51 71 -125q29 -74 33 -168q3 -96 -14 -218q-19 -127 -62 -273q21 300 -66 430q-76 114 -262 151q-146 30 -498 30v-278q0 -32 -30 -45q-10 -4 -19 -4q-20 0 -35 15l-593 463
q-14 16 -14 36q0 22 14 34l593 466q24 24 54 11q30 -11 30 -46v-283z" />
    <glyph glyph-name="redo" unicode="&#xe095;" 
d="M1130 1352v283q0 35 30 46q30 13 54 -11l593 -466q14 -12 14 -34q0 -20 -14 -36l-593 -463q-15 -15 -35 -15q-9 0 -19 4q-30 13 -30 45v278q-352 0 -498 -30q-186 -37 -262 -151q-87 -130 -66 -430q-43 146 -62 273q-17 122 -14 218q4 94 33 168q31 74 71 125
q43 52 111 88q65 35 136 57q68 22 166 32q104 13 183 15q76 4 202 4z" />
    <glyph glyph-name="indent-less" unicode="&#xe096;" 
d="M796 711l-312 314l312 312v-626zM1024 512h740v-114h-740v114zM1024 967h740v-114h-740v114zM1024 1422h740v-114h-740v114zM1024 740h740v-114h-740v114zM1024 1195h740v-114h-740v114zM1024 1650h740v-114h-740v114zM796 512h114v-114h-114v114zM796 1650h114v-114
h-114v114zM569 512h114v-114h-114v114zM569 1650h114v-114h-114v114zM341 512h114v-114h-114v114zM341 1650h114v-114h-114v114z" />
    <glyph glyph-name="indent-more" unicode="&#xe097;" 
d="M512 711v626l312 -312zM1024 512h740v-114h-740v114zM1024 967h740v-114h-740v114zM1024 1422h740v-114h-740v114zM1024 740h740v-114h-740v114zM1024 1195h740v-114h-740v114zM1024 1650h740v-114h-740v114zM796 512h114v-114h-114v114zM796 1650h114v-114h-114v114z
M569 512h114v-114h-114v114zM569 1650h114v-114h-114v114zM341 512h114v-114h-114v114zM341 1650h114v-114h-114v114z" />
    <glyph glyph-name="chain" unicode="&#xe098;" 
d="M1145 1686q87 60 190 69t197 -34.5t154 -130t69 -189.5t-34.5 -197t-129.5 -154l-59 -42q-15 102 -69 189l16 12q66 46 80 125t-32 145t-125 80t-145 -32l-371 -260q-66 -46 -80 -125.5t32 -145t125 -79.5t145 32l35 24q11 -30 1 -61.5t-37 -50.5l-190 -133
q-71 15 -133 55t-105 102q-61 86 -69.5 189.5t35 197t129.5 154.5zM903 362q-87 -60 -190 -69t-197 34.5t-154 130t-69 189.5t34.5 197t129.5 154l59 42q15 -102 69 -189l-16 -12q-66 -46 -80 -125t32 -145t125 -80t145 32l371 260q66 46 80 125.5t-32 145t-125 79.5
t-145 -32l-35 -24q-11 30 -1 61.5t37 50.5l190 133q71 -15 133 -55t105 -102q61 -86 69.5 -189.5t-35 -197t-129.5 -154.5z" />
    <glyph glyph-name="list-unordered" unicode="&#xe099;" 
d="M388 1393.5q0 86.5 61.5 148t148 61.5t147.5 -61.5t61 -148t-61 -147.5t-147.5 -61t-148 61t-61.5 147.5zM388 654.5q0 86.5 61.5 147.5t148 61t147.5 -61t61 -147.5t-61 -148t-147.5 -61.5t-148 61.5t-61.5 148zM967 825h683v-114h-683v114zM967 1337h683v-114h-683v114
zM967 597h683v-113h-683v113zM967 1564h683v-113h-683v113z" />
    <glyph glyph-name="list-ordered" unicode="&#xe09a;" 
d="M542 436h219v-80h-341q-6 71 19 142q11 33 34 64.5t67 77.5q29 32 45 51.5t33.5 50.5t19.5 54q3 28 -7.5 48t-36.5 24q-25 2 -43.5 -19.5t-18.5 -52.5h-99q-2 41 13 75.5t39 50.5q51 31 109 31q77 0 122 -49q45 -48 45 -118q0 -41 -16 -77.5t-51 -76.5q-12 -13 -69 -67
t-67 -61q-26 -20 -16 -68zM698 1664v-567h-136v402q-58 -80 -137 -118v141q50 15 102 52q53 38 74 90h97zM967 825h683v-114h-683v114zM967 1337h683v-114h-683v114zM967 597h683v-113h-683v113zM967 1564h683v-113h-683v113z" />
    <glyph glyph-name="matrix" unicode="&#xe09b;" 
d="M930 1211h186q38 0 67 -28q28 -27 28 -65v-188q0 -38 -27.5 -65.5t-67.5 -27.5h-186q-41 0 -67 28q-27 26 -27 65v188q0 39 27 65q28 28 67 28zM446 1211h187q38 0 67 -28q27 -27 27 -65v-188q0 -38 -27.5 -65.5t-66.5 -27.5h-187q-40 0 -66 28q-28 26 -28 65v188
q0 39 28 65q27 28 66 28zM1413 1211h187q38 0 67 -28q27 -27 27 -65v-188q0 -38 -27.5 -65.5t-66.5 -27.5h-187q-40 0 -66 28q-28 26 -28 65v188q0 39 28 65q27 28 66 28zM930 1694h186q38 0 67 -27q28 -29 28 -67v-187q0 -39 -27.5 -66.5t-67.5 -27.5h-186q-41 0 -67 28
q-27 26 -27 66v187q0 39 27.5 66.5t66.5 27.5zM446 1694h187q38 0 67 -27q27 -29 27 -67v-187q0 -39 -27.5 -66.5t-66.5 -27.5h-187q-40 0 -66 28q-28 26 -28 66v187q0 39 27.5 66.5t66.5 27.5zM1413 1694h187q38 0 67 -27q27 -29 27 -67v-187q0 -39 -27.5 -66.5
t-66.5 -27.5h-187q-40 0 -66 28q-28 26 -28 66v187q0 39 27.5 66.5t66.5 27.5zM930 729h186q38 0 67 -28q28 -29 28 -66v-187q0 -39 -27.5 -66.5t-67.5 -27.5h-186q-41 0 -67 27q-27 27 -27 67v187q0 39 27.5 66.5t66.5 27.5zM446 729h187q38 0 67 -28q27 -29 27 -66v-187
q0 -39 -27.5 -66.5t-66.5 -27.5h-187q-40 0 -66 27q-28 27 -28 67v187q0 39 27.5 66.5t66.5 27.5zM1413 729h187q38 0 67 -28q27 -29 27 -66v-187q0 -39 -27.5 -66.5t-66.5 -27.5h-187q-40 0 -66 27q-28 27 -28 67v187q0 39 27.5 66.5t66.5 27.5z" />
    <glyph glyph-name="paragraph-break" unicode="&#xe09c;" 
d="M1195 1422h-171v-967h-171v455h-49q-93 0 -171.5 46t-124.5 124.5t-46 171.5q0 91 44.5 169t121.5 124t168 48h797v-171h-228v-967h-170v967z" />
    <glyph glyph-name="clipboard" unicode="&#xe09d;" 
d="M740 583v-185h-313q-30 20 -57.5 41t-56.5 51.5t-29 49.5v1024q11 64 59 103.5t112 39.5h171v-185h-157v-939h271zM1294 1522h-156v185h156q17 0 60 -20t84 -55t41 -68v-136q-43 0 -97 -1.5t-59 -1.5h-29v97zM1024 1252h626q47 0 80.5 -33.5t33.5 -80.5v-740
q0 -47 -33.5 -80.5t-80.5 -33.5h-626q-47 0 -80.5 33.5t-33.5 80.5v740q0 47 33.5 80.5t80.5 33.5zM683 1764h398v-342h-398v342z" />
    <glyph glyph-name="table" unicode="&#xe09e;" 
d="M853 1081v-228h342v228h-342zM1559 1593q58 0 103 -45q20 -20 26.5 -27.5t12.5 -22.5t6 -35v-860q0 -59 -44.5 -103.5t-103.5 -44.5h-1070q-58 0 -102 45q-46 45 -46 103v860q0 20 6.5 35t12.5 22t27 28q45 45 102 45h1070zM853 1365v-227h342v227h-342zM455 1138h341
v227h-341v-227zM455 853h341v228h-341v-228zM796 569v227h-341v-227h341zM1195 569v227h-342v-227h342zM1593 796h-341v-227h341v227zM1593 1081h-341v-228h341v228zM1593 1365h-341v-227h341v227z" />
    <glyph glyph-name="bold" unicode="&#xe09f;" 
d="M1037 554h-376v1012h339q83 0 156 -18q68 -16 117 -52q47 -34 73 -87q26 -54 26 -122q0 -36 -7 -68t-24 -61q-18 -31 -41 -51q-27 -24 -61 -37q42 -11 71 -33q28 -22 47 -52q18 -29 27 -63q8 -37 8 -69q0 -149 -90 -225q-88 -74 -265 -74zM1046 984h-157v-242h148
q35 0 59 8q23 8 39 25q16 16 23 36q7 21 7 46q0 29 -7 53t-20 39q-15 17 -37 26q-25 9 -55 9zM889 1378v-234h118q74 0 106 29q32 28 32 84q0 63 -35 92t-110 29h-111z" />
    <glyph glyph-name="code" unicode="&#xe0a0;" 
d="M1515 996l-324 461l146 102l357 -511l37 -52l-37 -53l-357 -511l-146 102zM354 1048l357 511l146 -102l-324 -461l324 -462l-146 -102l-357 511l-37 53z" />
    <glyph glyph-name="italic" unicode="&#xe0a1;" 
d="M1196 1566l-183 -1012h-213l183 1012h213z" />
    <glyph glyph-name="strike-through" unicode="&#xe0a2;" 
d="M891 1024h-436v114h286q-16 21 -26 43q-25 49 -25 116q0 64 25 115q25 52 72 90q47 37 110 57q66 21 140 21q75 0 142 -24q65 -24 109.5 -64.5t70.5 -99.5q25 -60 25 -125h-195q0 31 -9.5 58.5t-28.5 47.5q-17 17 -48 30q-30 11 -69 11q-35 0 -67 -10q-28 -9 -46 -25
q-19 -16 -28 -38t-9 -45q0 -51 47 -84q51 -36 140 -62l32 -12h490v-114h-291h-411zM1363 933q21 -51 21 -112q0 -66 -25 -119q-23 -51 -69 -88q-45 -36 -108 -55q-65 -19 -140 -19q-38 0 -94 8q-45 8 -88 27q-45 19 -79 46q-38 27 -63 64q-28 37 -42 83q-16 46 -16 105h196
q0 -49 13 -79q13 -32 38 -52q25 -21 59 -29q33 -8 76 -8q37 0 65 8q27 8 46 24q17 15 27 36q9 22 9 47t-8 47q-7 20 -28 39t-55 35q-30 14 -62 26h310q10 -16 17 -34z" />
    <glyph glyph-name="subscript" unicode="&#xe0a3;" 
d="M1195 1536h569l-285 -284zM1739 1072v-93h-214v-464h-144v464h-211v93h569zM919 538l-67 202h-351l-66 -202h-214l362 979h185l364 -979h-213zM676 1270l-121 -367h242z" />
    <glyph glyph-name="superscript" unicode="&#xe0a4;" 
d="M1195 512l284 284l285 -284h-569zM1739 1584v-93h-214v-464h-144v464h-211v93h569zM919 538l-67 202h-351l-66 -202h-214l362 979h185l364 -979h-213zM676 1270l-121 -367h242z" />
    <glyph glyph-name="underline" unicode="&#xe0a5;" 
d="M512 398h967v-114h-967v114zM1166 1566h259v-661q0 -89 -30 -157q-29 -67 -86 -114q-55 -47 -133 -71q-83 -23 -173 -23q-92 0 -174 23q-80 24 -134 71q-56 45 -87 114q-31 67 -31 157v661h261v-661q0 -94 43 -135q42 -42 122 -42t121 42q42 42 42 135v661z" />
    <glyph glyph-name="invisible" unicode="&#xe0a6;" 
d="M930 882l-108 -107q88 -72 202 -72q87 0 161 43t117 117t43 161q0 114 -72 202l-107 -108q28 -42 28 -94q0 -71 -49.5 -120.5t-120.5 -49.5q-52 0 -94 28zM444 558l1046 1046l81 -81l-156 -155q107 -59 192.5 -147t141.5 -197q-103 -201 -297.5 -322.5t-427.5 -121.5
q-172 0 -328 69l-171 -172zM706 981l-208 -208q-124 106 -199 251q103 201 297.5 322.5t427.5 121.5q79 0 154 -15l-111 -111q-21 3 -43 3q-87 0 -161 -43t-117 -117t-43 -161q0 -22 3 -43z" />
    <glyph glyph-name="visible" unicode="&#xe0a7;" 
d="M703 1024q0 -87 43 -161t117 -117t161 -43t161 43t117 117t43 161t-43 161t-117 117t-161 43t-161 -43t-117 -117t-43 -161zM299 1024q103 201 297.5 322.5t427.5 121.5t427.5 -121.5t297.5 -322.5q-103 -201 -297.5 -322.5t-427.5 -121.5t-427.5 121.5t-297.5 322.5z
M854 1024q0 71 49.5 120.5t120.5 49.5t120.5 -49.5t49.5 -120.5t-49.5 -120.5t-120.5 -49.5t-120.5 49.5t-49.5 120.5z" />
    <glyph glyph-name="bin-strike" unicode="&#xe0a8;" 
d="M1195 1081l-31 -512h50l76 512h-95zM1074 979l-93 -93l22 -317h42zM872 777l-60 -60l22 -148h51zM1671 1759l92 -91l-133 -133q9 -1 14.5 -7.5t5.5 -15.5v-122q0 -11 -7 -18t-17 -7h-166l-113 -113h189l-135 -854h-747l-23 138l-236 -236l-92 91zM973 1252l-171 -171h-45
l6 -39l-185 -185l-66 395h461zM1257 1536l-171 -171h-664q-10 0 -17 7t-7 18v122q0 10 7 17t17 7h401q0 43 29 78.5t69 35.5h202q40 0 70 -35.5t30 -78.5h34z" />
  </font>
</defs>
</svg>
